<svg xmlns="http://www.w3.org/2000/svg" viewBox="0 0 325.99 196.93"><g id="Layer_2" data-name="Layer 2"><g id="Layer_1-2" data-name="Layer 1"><path class="cls-1" d="M49.14 154.63v-.09a1.45 1.45 0 0 0-1 .26h.09a.22.22 0 0 1-.18.23.36.36 0 0 0-.26.22c-.13-.12-.14-.19 0-.22s.13-.11.13-.23a9.38 9.38 0 0 0-1.43.5c-.48.21-1 .4-1.52.58.12 0 .16 0 .13.13s0 .14 0 .14l2.37-.72c.81-.24 1.63-.51 2.47-.8v-.09a2.46 2.46 0 0 0-.54 0 1.31 1.31 0 0 1-.26.09zM16.25 166.37a18.67 18.67 0 0 0-1.93 1.2 13 13 0 0 0-1.65 1.43 10.69 10.69 0 0 1 1.65-1.34c.68-.46 1.27-.88 1.93-1.29z"/><path class="cls-1" d="M71.45 103.14a14.28 14.28 0 0 1-1.52-2.64.38.38 0 0 0 0-.36.69.69 0 0 1-.09-.27L69 99a2.13 2.13 0 0 1-.49-.94c-1-.9-2-1.72-3-2.47a12.25 12.25 0 0 0-3.89-1.84c-.3.07-.47.08-.5 0s-.1 0-.22 0c.12-.17.1-.28-.05-.31a.25.25 0 0 0-.31.14.62.62 0 0 0-.54-.14 1.11 1.11 0 0 1-.56-.08h.07a.17.17 0 0 1 .13 0H59.2s0 .05-.09.05v-.09a1 1 0 0 0-.54 0 1 1 0 0 1-.54 0h.27l-.47-.32q.09.18-.54.36l.09.09h-1a1.45 1.45 0 0 1-.81-.13h.67a1.15 1.15 0 0 0 .5-.09c-.56.05-1.13.06-1.7.07a2.28 2.28 0 0 1 .26 0c-1.19.3-2.3.53-3.31.71s-1.94.33-2.78.45c-.3 0-.4 0-.31-.09s-.05-.09-.41-.09c-.06.06 0 .09.05.09s.13 0 .13.09a26.15 26.15 0 0 0-3.31.94c-1.08.39-2.22.82-3.41 1.3a.08.08 0 0 1 .09-.09q.09 0 .09-.18l-1.32.57h.08c.12 0 .11.06 0 .18a.67.67 0 0 1-.4.18q0-.18.09-.18l-.54.27a.29.29 0 0 1-.27.18.08.08 0 0 0 .09-.09.08.08 0 0 1 .09-.09l-1.7.63h.44c0 .06-.17.09-.53.09a56 56 0 0 0-7.53 4L27 104.62a3.47 3.47 0 0 0-.85.49l-.76.58a2.78 2.78 0 0 0 .81-.49 1.69 1.69 0 0 1 .8-.4q-1.79 1.42-3.45 2.69c-1.1.83-2.22 1.76-3.36 2.77-.06 0-.09 0-.09-.08l-.09-.09v.26l-1.34 1.26h-.09q-1.35 1.26-2.55 2.55a9.93 9.93 0 0 0-1.93 3.09l.13.27a.62.62 0 0 1 0 .27h.09c-.06 0-.06-.08 0-.14q.18.18.27 0t.18-.09a4 4 0 0 0-.36.72 1.92 1.92 0 0 0 0 1.17q.09-.18.18-.18t0 .18c.06 0 .1-.08.13-.23s.08-.16.14 0a6.69 6.69 0 0 0-.09 1.12 1.2 1.2 0 0 0 .26.85.32.32 0 0 1 .36-.36.67.67 0 0 1-.18.4.37.37 0 0 0-.09.41 4 4 0 0 0 .27-.68.62.62 0 0 1 .27-.4.26.26 0 0 1 .18.09v.09c.06.12.08.12.05 0s0-.15.13-.09v.49c0 .21-.06.35-.18.41.12.06.14.15.05.27s-.08.21 0 .26.09 0 .09-.17v.08a.2.2 0 0 0 0 .14 1.38 1.38 0 0 0 .5 0h.36a1 1 0 0 0-.18.72c.18 0 .28-.12.31-.36s.14-.36.31-.36a.66.66 0 0 1 .41.45 1.61 1.61 0 0 0 .31.42q.45-.09.54.09t.54 0v.18a.08.08 0 0 0 .09.09h.22a1.07 1.07 0 0 0 .23.14c0-.24.07-.37.22-.41a1.22 1.22 0 0 0 .49-.22l.63-1.34a3.64 3.64 0 0 1 .67-1.57 7.79 7.79 0 0 1 1.3-1.48c1.55-1.55 3.21-3.08 5-4.57s3.6-2.93 5.52-4.3a80.79 80.79 0 0 1 9.59-5.16A47.55 47.55 0 0 1 53.89 101l.9-.17a1.27 1.27 0 0 1 .8.08c.12 0 .18-.1.18-.13s.06 0 .18 0c1-.06 2.11-.14 3.27-.23a17.83 17.83 0 0 1 3.36 0 9.49 9.49 0 0 1 4.39 1.7 2.92 2.92 0 0 1 .68 1.07 2.09 2.09 0 0 1 0 1.26.83.83 0 0 1 .22.49 4.13 4.13 0 0 1 0 .58 8.65 8.65 0 0 1-1.52 3.19 11.25 11.25 0 0 0-1.62 2.73h-.09c0 .12 0 .19-.09.22s-.09.11-.09.23a2.82 2.82 0 0 0-1.12 1 3.92 3.92 0 0 1-1 1.08.88.88 0 0 1-.27.31 6 6 0 0 0-.53.49 1.12 1.12 0 0 0-.63.72c-.42.42-.75.73-1 .94a5.83 5.83 0 0 0-.71.76 2.71 2.71 0 0 1-.45.09c-1.68 1.38-3.39 2.77-5.15 4.17a57.24 57.24 0 0 1-5.52 3.9c.84-.42 1.69-.9 2.56-1.43s1.63-1 2.28-1.53a18.24 18.24 0 0 1-3.63 2.56c-.85.45-1.71.89-2.57 1.33a.86.86 0 0 0 .24-.17l.41-.4q-.72.36-1.35.72c-.42.23-.86.5-1.34.8l.63-.27a23.21 23.21 0 0 1-2.31 1.68c-.75.45-1.57.91-2.46 1.39h.35a2.51 2.51 0 0 1-.94.63 12.34 12.34 0 0 1-1.21.36h-.09c0 .12 0 .17-.09.17s-.08 0-.08.09v.09c.41-.12.79-.23 1.12-.35a2.13 2.13 0 0 0 .76-.45.26.26 0 0 1 .18.09 5.51 5.51 0 0 1-1 .62 3.89 3.89 0 0 1-1.25.36.48.48 0 0 1 .18-.36.64.64 0 0 1 .08-.26 1 1 0 0 0-.35.13c-.18.09-.3 0-.36-.13q2.05-3.41 4.52-6.91c1.65-2.33 3.33-4.53 5.07-6.63a1.61 1.61 0 0 0 .4-.31 2.19 2.19 0 0 1 .58-.4 10 10 0 0 1 1.21-2.11 12.48 12.48 0 0 0 1.3-2.2c.12 0 .17-.07.14-.22s.07-.22.31-.22a1.2 1.2 0 0 1 .58-.85c.33-.21.46-.65.41-1.3a2.18 2.18 0 0 0-.32-1.3 5.69 5.69 0 0 1-.49-1.12 9.34 9.34 0 0 0-1-.59 1.34 1.34 0 0 1-.58-.58l-.54-.09a1.23 1.23 0 0 0-.94-.63 3 3 0 0 1-1.21-.53 4.26 4.26 0 0 1-.32.49c-.15.21-.37.22-.67 0a.58.58 0 0 0-.13.23.41.41 0 0 1-.23.22c-.89 1-1.76 1.94-2.6 3s-1.67 2.12-2.5 3.32a28.65 28.65 0 0 0-2.51 3.09c-.84 1.16-1.59 2.25-2.24 3.27q-1.35 1.88-2.6 3.45c-.84 1-1.68 2.1-2.51 3.18-1.2 1.85-2.39 3.73-3.59 5.65s-2.3 3.79-3.31 5.64l-2.33 4.48q-1.08 2.61-2.06 5a66.76 66.76 0 0 0-1.89 5.29 26.16 26.16 0 0 1-.58 3.18c-.27 1.11-.55 2.17-.85 3.18-.06.66-.15 1.43-.27 2.33a7.54 7.54 0 0 0 0 2.33 3.79 3.79 0 0 0 .18 1.12.66.66 0 0 1-.27.85v.09a.26.26 0 0 0 .09.18 1.47 1.47 0 0 0-.45 1.08 10.83 10.83 0 0 0-3.49 2.24 3 3 0 0 1-.45.36c-.18.12-.42.29-.72.53a.52.52 0 0 1-.18.36v-.09l-.18-.09a.66.66 0 0 0-.4.5c0 .2-.07.22-.13 0-.06 0-.11.12-.14.36s-.1.27-.22.09c0 .24-.06.37-.18.4a1.78 1.78 0 0 0-.36.14q.18 0 0 .09c-.12.05-.12.14 0 .26a1.62 1.62 0 0 0 .85-.67 1.38 1.38 0 0 1 .94-.58 24.47 24.47 0 0 1 2.42-2.28 18.52 18.52 0 0 1 2.69-1.84c0 .12.1.18.31.18s.32.06.32.18a.17.17 0 0 1-.05.13.93.93 0 0 0-.13.23c.06 0 .13-.08.22-.23s.2-.16.32 0c-.66.47-1.35.92-2.06 1.34a8 8 0 0 0-1.91 1.58 7.69 7.69 0 0 0 1.53-1.12 4.85 4.85 0 0 1 1.36-.98v.27a.69.69 0 0 0 .49-.13l.23-.23a3.07 3.07 0 0 1-.58.76 4.89 4.89 0 0 1-.68.59 3.25 3.25 0 0 0-1.07.53q-.45.36-1 .72a.81.81 0 0 1 .54-.45.81.81 0 0 0 .54-.53 8 8 0 0 0-1.79 1.3c-.54.5-1.05 1-1.53 1.47a1 1 0 0 0-.67.27.73.73 0 0 0-.31.54.22.22 0 0 0-.23.18.21.21 0 0 1-.22.18c0-.18 0-.27.13-.27s.14-.06.14-.18-.3.12-.54.54a3.18 3.18 0 0 1-.94 1 2.09 2.09 0 0 0-.76.85h-.14-.13a3.41 3.41 0 0 1-1.21 1.48 2.34 2.34 0 0 0-.94 1.75 1.2 1.2 0 0 0-.23.13.92.92 0 0 1-.22.14.15.15 0 0 1 .09-.14h-.09a7.09 7.09 0 0 0-.27.71q-.18.54-.45.36c.12.12.14.2.05.23a.58.58 0 0 0-.23.13c-.24.12-.36.14-.36 0s0-.14-.09-.14a1.81 1.81 0 0 0-.22.45.57.57 0 0 1-.13.27v-.36a4.28 4.28 0 0 1-.5.22.74.74 0 0 1-.22 0 4.76 4.76 0 0 0-.09.94.66.66 0 0 1-.45.67.26.26 0 0 0-.09-.18c0-.18.05-.28.14-.31s.13-.08.13-.14a.29.29 0 0 0-.27.18q-.09.18-.27-.18a2.66 2.66 0 0 1 .54-1 2.61 2.61 0 0 0 .54-1.12 5.88 5.88 0 0 0-1.22 1.6 4.76 4.76 0 0 1-1.12 1.42 7.11 7.11 0 0 0-.3 1.08 1.11 1.11 0 0 0 .09.8.76.76 0 0 0 .31.5c.15.08.26.31.32.67q-.18-.09-.18.18 0 .09.09 0t.09.09v.35c.3.06.44.2.44.41a.56.56 0 0 0 .27.49v.58a1.15 1.15 0 0 1-.09.5c-.18-.06-.22-.06-.13 0l.36.22a3.11 3.11 0 0 0 .45.22c.15.06.25.06.31 0a1.06 1.06 0 0 1 .18.41.54.54 0 0 0 .36.4 1.37 1.37 0 0 0 .58.09c.27 0 .4.06.4.18q.54 0 .54.27a.21.21 0 0 1 .31-.09 1.05 1.05 0 0 0 .32.09q.09 0 .09.18a.16.16 0 0 0 .18.18 3.59 3.59 0 0 0 2.64.4 8.2 8.2 0 0 1 2.47-.22c1.07-.42 2.2-.84 3.4-1.26s2.42-.89 3.67-1.43q0-.18-.09-.18l2.33-1.17a1.24 1.24 0 0 1 .9-.27V185a2.89 2.89 0 0 0 1.12-.77.93.93 0 0 1 .76-.4 3 3 0 0 0 1.17-.36 4.69 4.69 0 0 0 .89-.72l.27-.44a30.25 30.25 0 0 0 3.54-1.89c1.17-.71 2.32-1.43 3.45-2.15.12.06.2.05.23 0a.2.2 0 0 1 .22-.14V178a.24.24 0 0 1 .09-.18.26.26 0 0 1 .09-.18 1.39 1.39 0 0 0 1-.77.92.92 0 0 1 .89-.58h-.09l1.08-.8.54-.36q0 .18.09.18h.09c.29-.3.53-.56.71-.77a2.9 2.9 0 0 1 .72-.58l.45-.36-1.17.72c.36-.3.82-.64 1.39-1a16.65 16.65 0 0 0 1.57-1.21 2.48 2.48 0 0 1-.63.72l.41-.27c.38-.24.82-.54 1.3-.9l5.39-4.66a2.51 2.51 0 0 0 .9-.67c.3-.33.57-.46.8-.4a.31.31 0 0 1 .14-.27.3.3 0 0 0 .13-.27 11.48 11.48 0 0 1 1-.72l1.15-.67a.88.88 0 0 1 .27-.5 6.17 6.17 0 0 0 .45-.58.72.72 0 0 1 .54-.58.87.87 0 0 0 .54-.32 17.06 17.06 0 0 1 2-2.33 12.69 12.69 0 0 0 2-2.51 2.59 2.59 0 0 1 .81-.8.38.38 0 0 1 0-.23.92.92 0 0 0 .14-.22.21.21 0 0 1 .22.13c0 .09.07.14.13.14a1.44 1.44 0 0 1 .63-1.26 1 1 0 0 1 .45-.8q0 .18.09.18a2.11 2.11 0 0 0 .81-1 .94.94 0 0 1 .89-.63c-.3-.47-.28-.77 0-.89a1.16 1.16 0 0 0 .67-.54q0-.09-.18.09t-.09-.09.27-.09a.26.26 0 0 1 .09-.18c.54-.18 1.07-.34 1.61-.49a12.42 12.42 0 0 0 1.61-.58h.41a3.75 3.75 0 0 0 .67-.09v-.09a4.58 4.58 0 0 1-.9.09v-.36c.6-.12 1.32-.23 2.15-.32.52-.05 1-.07 1.56-.07v-.15q-.18.18-1 0h.27q-.36-.27-.36.09c-.54.06-1 .1-1.48.13s-.79 0-1 0v.09q-.18 0-.18-.09h-.18c0 .18 0 .27-.08.27v-.27h-.45a.16.16 0 0 0 .18-.18 6 6 0 0 1 1.16-.09H67a1.5 1.5 0 0 0-.76-.13 2.3 2.3 0 0 1-.76 0 3.19 3.19 0 0 1-.85 0 1 1 0 0 0-.32 0l.09-.09a4 4 0 0 1 1-.18 2.17 2.17 0 0 0 .67-.09h.8a1.15 1.15 0 0 0 .85.18 1 1 0 0 1 .38 0 .14.14 0 0 1-.06-.08c0-.06 0-.1.11-.11v-.21h-.29.28v-.22c-.24 0-.75.05-1.53.14s-1.53.21-2.28.36l-1.79.36c-.45.09-.5.07-.14 0h.27a.24.24 0 0 0 .27-.27c-.24 0-.37 0-.4.09s-.11 0-.23-.09c.06-.18.35-.3.85-.36a6.41 6.41 0 0 0 1.3-.27.58.58 0 0 1 .05-.31v-.22a1 1 0 0 0-.76.18c-.33.18-.58.18-.76 0s-.06-.17 0-.14.09 0 .09-.13a.39.39 0 0 0-.18 0 .55.55 0 0 1-.36 0q.27-.45.45-.36t.18-.27c-.06 0-.11.06-.13.18s-.08.06-.14-.18h.1v-.09a3.56 3.56 0 0 0 .31-.58 1.36 1.36 0 0 0 .14-.5c-.12.13-.17.21-.14.27s0 .06-.13 0l.27-1.07c.24-.12.33-.26.27-.41s-.09-.19-.09-.13a5.57 5.57 0 0 0 .18-1.34v-1.17a6 6 0 0 0 .09-1v-.81a5 5 0 0 0-.41-2.06 6.31 6.31 0 0 0-.94-1.53 8.48 8.48 0 0 0-1.43-2.15c-.36-.53-.72-1.06-1.08-1.56a3.68 3.68 0 0 0-1-1 1.43 1.43 0 0 0-.54-.09 1.58 1.58 0 0 1-.72-.17 4.55 4.55 0 0 0-1.66-.86l-1.92-.58c.47-.3 1-.68 1.7-1.16l1.7-1.26h-.09l.18-.18a18 18 0 0 1 3-2.15 6 6 0 0 0 1.57-1.12 7.18 7.18 0 0 1 1.66-1.21c1.25-1.31 2.56-2.72 3.94-4.21a15.64 15.64 0 0 0 3.14-5.32 11.16 11.16 0 0 0 1.16-3.13 13.1 13.1 0 0 0 .27-3.41 6.32 6.32 0 0 0-.98-3.54zM1.64 182.59v-.72a2.12 2.12 0 0 1-.49.85 3.88 3.88 0 0 1-.58.49c-.18 0-.2-.07 0-.22s.08-.23-.22-.23c.18-.47.33-.85.45-1.12a3.84 3.84 0 0 0 .27-.85c.12.12.21.18.26.18s.3.33.54.63.13.63-.23.99zM63.93 149a1 1 0 0 1-.45.09.71.71 0 0 1 .45-.09zm-18.06-22.2a.83.83 0 0 0 .49-.22 1.79 1.79 0 0 0 .37-.12c-.43.22-.84.44-1.27.65a.46.46 0 0 1 .41-.31zM42 130.25a.25.25 0 0 1-.31.13 1 1 0 0 0-.5.05q.06-.36.81-.18zm-24.76 37.86a.54.54 0 0 1 .35-.13c0 .12 0 .19-.13.22a.49.49 0 0 0-.22.14c-.12-.06-.12-.14 0-.23zm-.72.14a6.82 6.82 0 0 1-2.15 1.52 14.38 14.38 0 0 1 2.15-1.52zm-3.59 7.08a2 2 0 0 0-.31.4.43.43 0 0 1-.4.22.77.77 0 0 0 .31-.31.73.73 0 0 1 .4-.31zm-1.34-3q0-.36.72-.54a.87.87 0 0 0-.72.58zm.18 4.21l-.08.1c.03-.02.06-.06.08-.06zm-.77-4.8a2 2 0 0 0 1-1.07 2.71 2.71 0 0 1 .45.09 6.34 6.34 0 0 1-1.26 1 3.25 3.25 0 0 0-1.07 1 1.59 1.59 0 0 1 .88-1.02zm.27 4.21a9.56 9.56 0 0 0-.72.86c-.3.38-.5.64-.62.76l-.18.18a7.54 7.54 0 0 1 1.48-1.75zm-6.81 2.92a.69.69 0 0 0 .36-.41l.09-.27-.18.72a3.76 3.76 0 0 1 .31-.54 1.55 1.55 0 0 0 .23-.53h-.13l.8-1.26a5.79 5.79 0 0 1-.67 1.52l-.85 1.35a.37.37 0 0 1 .09-.27l-.18.27c-.12-.3-.09-.45.09-.58zm1.34-.05l-1.2 1.61-.36.54a1 1 0 0 1-.36.36 4.33 4.33 0 0 1 .72-1.75 7.32 7.32 0 0 0 .9-1.74v.16c1-.9 1.8-1.72 2.55-2.47s1.57-1.51 2.46-2.28c.06.17.06.26 0 .26s.06-.06.18 0a2.93 2.93 0 0 0-.8 1.08 7.09 7.09 0 0 1-1.21.81 3 3 0 0 0-1 .8.82.82 0 0 0-.18.59.82.82 0 0 1-.09.49 2 2 0 0 1-.67.54 2.71 2.71 0 0 0-.98 1zm6.82 9.5a7.15 7.15 0 0 1-2.15.54 20.58 20.58 0 0 0 2-.67 17.29 17.29 0 0 1 2.11-.68.26.26 0 0 1 .09.18 9.84 9.84 0 0 0-2.09.63zm3.18-1.25a2.13 2.13 0 0 1-.76.53 3.66 3.66 0 0 1 .71-.71 3.52 3.52 0 0 1 .81-.45 3.15 3.15 0 0 0-.8.63zm4.52-3.27a2.76 2.76 0 0 0-.8.22 1.2 1.2 0 0 1 .62-.27 2 2 0 0 0 .72-.27.76.76 0 0 1-.58.32zm8-4.31c-.57.33-1.15.65-1.74.94a6.14 6.14 0 0 0 .53-.4c.18-.15.33-.28.45-.4a2.14 2.14 0 0 0 1.21-.54 2.75 2.75 0 0 1 1.21-.63c-.56.36-1.11.7-1.68 1.03zm-2.1.94a4.9 4.9 0 0 1 1.39-1.12c.5-.26 1-.55 1.56-.85l-1.47.94c-.53.33-1.02.68-1.5 1.03zm3.67-2.33l.81-.71a.37.37 0 0 0-.09.27zm5.07-3.54a1.58 1.58 0 0 0-.77.95c-.06-.12-.1-.12-.13 0s-.2.11-.49 0c-.48.35-.94.71-1.39 1.07s-.94.72-1.48 1.08a.37.37 0 0 0 .09-.27v-.09a4.11 4.11 0 0 1 1.43-1 3.48 3.48 0 0 0 1.35-1 1.75 1.75 0 0 0 .89-.81h.27a1.3 1.3 0 0 1 .36-.13.44.44 0 0 0 .27-.23 1 1 0 0 0 .45-.13c.18-.09.27-.08.27 0zm6-3.22a9.65 9.65 0 0 1-1.16.58c.36-.24.7-.45 1-.63a4.39 4.39 0 0 0 .94-.71 2.29 2.29 0 0 1-.85.76zm10.49-18.51c0 .06 0 .08.09 0s.09 0 .09 0a.26.26 0 0 1-.18.09v-.18q-.09 0-.09.27l-.27.36a2.11 2.11 0 0 1-1 .63c0-.12 0-.17.09-.14s.08 0 .08 0a.54.54 0 0 0-.31.09c-.09.06-.07.24.05.54v-.45c.06 0 .07.09 0 .27s0 .27 0 .27a1.26 1.26 0 0 1-.54.67 3.81 3.81 0 0 1-1 .49.26.26 0 0 1 .18.09 18.1 18.1 0 0 1-2 2c-.66.56-1.34 1.18-2.06 1.83v.36c-.24-.06-.38 0-.4.09a4.18 4.18 0 0 1-.23.54c0 .06 0 0 .09-.05s.12-.13.18-.13a7.89 7.89 0 0 1-2 2.11c-.72.5-1.5 1-2.33 1.47a7.8 7.8 0 0 1-.81.86 3.85 3.85 0 0 1-1.07.58c-.48.48-1 .94-1.48 1.39a18.74 18.74 0 0 1-1.66 1.3v.36a.37.37 0 0 1-.09-.27l-2.69 2c.06.12.11.12.14 0s.07-.12.13 0c-.3.3-.61.59-.94.89a11.11 11.11 0 0 1-1.3 1 3.49 3.49 0 0 1-.45.18.58.58 0 0 1-.45 0h.09a.16.16 0 0 0 .18-.18c-.3 0-.48 0-.53.13s-.15.23-.27.41q.18 0 .18-.09c0-.06 0-.09.09-.09a.3.3 0 0 1 0 .4c-.09.15-.19.23-.31.23a3 3 0 0 1-1.12.67l-1.21.4v-.09a1.09 1.09 0 0 0-.63.72q-.18.54-.63.18a4.23 4.23 0 0 1-1.39 1.07q-.77.36-1.83.9v.27h.09c0 .24 0 .37-.09.4a.73.73 0 0 0-.18.14.2.2 0 0 1 0-.14 1.27 1.27 0 0 0 .14-.4 8.81 8.81 0 0 1-.9.54c-.24.12-.51.23-.81.35V178a1.4 1.4 0 0 0-.89.26h.09q.18 0 .18.09a1.33 1.33 0 0 0 .49-.09 1.3 1.3 0 0 1 .49-.09 18.08 18.08 0 0 1-3.18 2.11c-1.11.57-2.32 1.12-3.63 1.66v.27c-.9.41-1.82.79-2.78 1.12s-2 .73-3 1.21q-.1-.45 0-.54a.41.41 0 0 0 .08-.27c-.12 0-.17.06-.17.18a2.06 2.06 0 0 1-.18.63q-.09-.45-.27-.27t-.03-.27c0-.06 0 0 .09.13s.15.08.27-.22c0-.06-.05-.11-.14-.13s-.13 0-.13 0v-.27a5.87 5.87 0 0 1 1.52-.22 4.13 4.13 0 0 0 1.7-.41 1.43 1.43 0 0 0-.44.09 1.7 1.7 0 0 1-.54.09 5.62 5.62 0 0 1 1.75-1.07c.62-.24 1.21-.48 1.74-.72-.06-.18-.15-.22-.27-.13a3.25 3.25 0 0 0-.35.31 4.09 4.09 0 0 0-1.84.63 10.68 10.68 0 0 1-1.75.92.11.11 0 0 0 0-.18q0 .18-.54.27a3 3 0 0 0-.71.18v-.18h-.14a1.75 1.75 0 0 1 .45-.18 3.08 3.08 0 0 0 .94-.44 9 9 0 0 0-1 .31 5.25 5.25 0 0 1-.81.22c.3-.65.6-1.25.9-1.79a4.44 4.44 0 0 1 1.25-1.43c-.12.12-.09.13.09 0s.27-.16.27-.22h-.07a1 1 0 0 0 .18-.27v-.09s.05 0 .05-.09l.09-.09.27-.54a8.84 8.84 0 0 0-1.44 1.39c-.48.57-.89 1.09-1.25 1.57-.06-.12 0-.22.18-.31s.23-.29.18-.59a.83.83 0 0 0 .35-.49c.06-.21.18-.28.36-.22a13.43 13.43 0 0 1 1.08-1.12 6.74 6.74 0 0 0 .89-1v.09a.37.37 0 0 0 .23-.05.17.17 0 0 1 .13 0 .39.39 0 0 1-.22.22.2.2 0 0 0-.14.22l1-.8v-.09-.12l1.31-1.32v.14a9 9 0 0 1 1-.71 4.39 4.39 0 0 0 1-.9l-1.44 1 1.44-1.08a2.84 2.84 0 0 0 .26-.31 2.18 2.18 0 0 1 .27-.32v.09a6.16 6.16 0 0 0 .63-.49 4.4 4.4 0 0 0 .63-.67.26.26 0 0 0 .18.09.58.58 0 0 1 .36-.54c.11.06.13.1 0 .13s-.13.11-.13.23a1.47 1.47 0 0 0 .49-.36 3.31 3.31 0 0 1 .31-.36c.12.12.11.21 0 .27s-.17.15-.05.27a9.18 9.18 0 0 0 1.27-.64 3.65 3.65 0 0 0 .94-.94L30.5 164a6 6 0 0 0-.85.4l-.76.4a3.08 3.08 0 0 1 1-.8q.63-.36 1.35-.81c.23-.12.5-.27.8-.45s.45-.33.45-.45a.11.11 0 0 0 .18 0 .37.37 0 0 0 .09-.27.31.31 0 0 0-.27.14.4.4 0 0 1-.36.13v-.18a.17.17 0 0 1 .23 0c.09.06.13 0 .13-.09v-.53a1.23 1.23 0 0 1 .09.53c.06-.06.06-.21 0-.44q.09.09.09 0a.09.09 0 1 1 .09.09 1.48 1.48 0 0 0 .45-.09 1.48 1.48 0 0 1 .45-.09c-.3-.12-.32-.24 0-.36a2 2 0 0 0 .49-.27l.09.09a.37.37 0 0 0 .23-.05.17.17 0 0 1 .13 0h.09v-.09q0 .09-.09-.09a1.1 1.1 0 0 1 .18-.14c.06 0 .06 0 0 .14a1.9 1.9 0 0 1 .67-.36 1.16 1.16 0 0 0 .68-.54l.35.18q0-.18.09-.18t.09-.18a.39.39 0 0 0 .5 0 2.56 2.56 0 0 1 .4-.27c.06 0 .07 0 0-.13s-.07-.13-.13-.13c-1 .47-2 .94-2.91 1.39s-1.84.91-2.74 1.38c-.06-.11-.21-.11-.44 0a4.07 4.07 0 0 1 1.47-1 4.13 4.13 0 0 0 1.21-.63.59.59 0 0 0 .36-.13.57.57 0 0 1 .27-.14.29.29 0 0 1 .27-.18 1.1 1.1 0 0 1 .63-.4c.3-.09.59-.19.89-.31 0 .18-.07.26-.22.26s-.22 0-.22.09c.23.06.37 0 .4-.09s.1-.11.22 0c-.12-.17 0-.31.27-.4a1 1 0 0 0 .63-.67q0 .27.09.27a10.51 10.51 0 0 0 1.66-.58 8.22 8.22 0 0 0 1.3-.77H41a1.31 1.31 0 0 1 .5-.09h.58A19.58 19.58 0 0 1 40 158l-2.28.9a2.17 2.17 0 0 0 .72-.27.54.54 0 0 1-.44.37 1 1 0 0 0 .31-.05.4.4 0 0 1 .31.05.67.67 0 0 0-.17-.32h.08a1.45 1.45 0 0 0 .63-.18.26.26 0 0 1 .09.18 1 1 0 0 1 .54-.41.8.8 0 0 0 .45-.22 1.23 1.23 0 0 0 1 0 1.6 1.6 0 0 0 .63-.5q.09 0 .09.27a7.11 7.11 0 0 1 .85-.72 1.51 1.51 0 0 1 1.12-.26q0-.09-.18-.27l-1.07.18a1 1 0 0 0-.27.18.84.84 0 0 1-.27.17c0-.41.06-.62.18-.62v.27c.12 0 .28-.15.49-.45a.71.71 0 0 1 .76-.36.08.08 0 0 1 .09-.09.08.08 0 0 0 .09-.09c.24.12.32.12.23 0s0-.15.22-.09a.08.08 0 0 1-.09.09q-.09 0 .09.09a.26.26 0 0 0 .18-.09v-.27c-.48.12-1 .27-1.52.45a6.81 6.81 0 0 0-1.62.81 1.16 1.16 0 0 1-.62.26 1.33 1.33 0 0 0-.63.27.56.56 0 0 0-.63.18 1.32 1.32 0 0 1-.63.45c-.12-.06-.32 0-.62.18q-.18-.18 0-.18t0-.09l-.81.32a.93.93 0 0 0-.54.49.81.81 0 0 0-.54 0 1.79 1.79 0 0 1-.8 0l.89-.27c.06-.06.11-.08.14-.05s.07 0 .13 0q.9-.36 1.8-.63a7.14 7.14 0 0 0 1.61-.71c-.12-.12-.2-.14-.23-.05s-.07.13-.13.13l-2.24.81v-.18c.12-.12.25-.27.4-.45s.41-.2.76-.09a1 1 0 0 1 .81-.31c.3 0 .54-.16.72-.58a2.48 2.48 0 0 0 1.52-.54c.18.06.3 0 .36 0a.69.69 0 0 1 .27-.23v.27l.18-.36.27-.18a2.58 2.58 0 0 1 1.07-.49l1.08-.22q0 .09-.18.09t-.18.09h.18q.27 0 .27-.18v-.09a1.43 1.43 0 0 1 .85-.63l.94-.27a.62.62 0 0 1 .27 0 .39.39 0 0 0 .18 0l.09.09.18-.18q0-.27.09-.27 0 .27-.09.27h.09q.09 0 .09-.36l1.25-.27a11.32 11.32 0 0 0 2.69-1.07.88.88 0 0 1-.76.71 1.49 1.49 0 0 0-.76.27.08.08 0 0 0 .09.09l2.24-.89c-.23.55-.56.87-.98.93zm-21.6 10a1.85 1.85 0 0 1 1.35-.9v.18a5.11 5.11 0 0 0-.68.41 1.94 1.94 0 0 1-.74.35zm22.77-11.29a.42.42 0 0 0-.45.27q-.09.27-.36-.18a.36.36 0 0 1 .36-.18h.45zm6.72-14.43a2 2 0 0 1 .35 1.57 13.06 13.06 0 0 1-.26 1.84 11.58 11.58 0 0 1-1.75 4c-.87 1.29-1.63 2.47-2.29 3.54a7.91 7.91 0 0 0-.76 1.08 3.55 3.55 0 0 1-.85 1h.18a2.05 2.05 0 0 0-.45.81c-3 .84-5.87 1.79-8.65 2.87s-5.51 2.21-8.2 3.4l.09-.18a1.49 1.49 0 0 0-.36.05.36.36 0 0 0-.26.22h.44c-1.19.6-2.4 1.15-3.63 1.66s-2.4 1.06-3.54 1.66l.41-.4a2.21 2.21 0 0 1 .58-.41c-.84.42-1.66.85-2.46 1.3l-2.38 1.3a22.25 22.25 0 0 1 2.08-1.42 15.89 15.89 0 0 0 2.06-1.44q.09-.09.09 0t.09 0a.08.08 0 0 1-.09-.09.37.37 0 0 0 .27-.09q.09-.08.27.09a1 1 0 0 1 .81-.44.91.91 0 0 0 .8-.63 9 9 0 0 0-1.52.67c-.48.27-1 .55-1.43.85l.35-.45a3.18 3.18 0 0 0-.76.32 5.53 5.53 0 0 1-.94.4 4.59 4.59 0 0 0-.58.49 1.46 1.46 0 0 1-.76.41 1.29 1.29 0 0 1-1.08.36.76.76 0 0 0-.22.4c0 .15-.17.19-.41.13s0-.29.23-.35.37-.21.31-.45a.81.81 0 0 1 .36-.23c.12 0 .24-.16.36-.4a1 1 0 0 0-.81.36.52.52 0 0 1 .09-.36q.09-.09-.09-.09a.26.26 0 0 0-.09.18v.27a4.81 4.81 0 0 1-.4.36 1 1 0 0 0-.31.36v.26c-.06 0-.09-.09-.09-.26a.81.81 0 0 0-.41.13c-.15.09-.22.1-.22 0s.06-.17.18-.17a.16.16 0 0 0 .18-.18 1 1 0 0 0 .49-.23 2.21 2.21 0 0 1 .58-.31.83.83 0 0 0-.62.18.61.61 0 0 1-.45.18c.12-.78.37-1.26.76-1.44a1.37 1.37 0 0 0 .76-.71l-.49.22a1.73 1.73 0 0 0-.58.4v-.27c0-.18 0-.26.09-.26.35-1 .73-2.14 1.12-3.37a26.1 26.1 0 0 1 1.56-3.8 22.35 22.35 0 0 1 1.12-3.1 13.54 13.54 0 0 1 1.66-2.73 1.54 1.54 0 0 1 .36-1.16 16.61 16.61 0 0 0 2.24-1.66 8.74 8.74 0 0 1 2.33-1.48c1.31-.72 2.75-1.46 4.3-2.24a27.29 27.29 0 0 1 4.9-1.85 24.15 24.15 0 0 1 4.62-1.39A23.89 23.89 0 0 1 54 136a17.71 17.71 0 0 1 2.64.41 22.77 22.77 0 0 1 2.63.74zm-4.4-7a4.73 4.73 0 0 0 1.39.58 2.78 2.78 0 0 1 1.21.58c-.48-.17-1.09-.38-1.83-.62a10 10 0 0 0-2.29-.45 1.55 1.55 0 0 1 .76-.27 2.07 2.07 0 0 1 .69.23z"/><path class="cls-1" d="M19.66 177.66a1.21 1.21 0 0 0-.32.22 1.16 1.16 0 0 1-.31.22 6.5 6.5 0 0 0-1.21.59 6.52 6.52 0 0 1-1.21.58 3.59 3.59 0 0 0 1.57-.58 6.94 6.94 0 0 1 1.48-.76l.53-.45a.52.52 0 0 1-.36.18zM49.41 153.64h-.09a.36.36 0 0 1-.54-.18 1.48 1.48 0 0 1-.31.13 1.08 1.08 0 0 0-.32.23v.09h-.27c-.17 0-.32.18-.44.54a1 1 0 0 1-.81.31.84.84 0 0 0-.81.49h.27q.18-.45.45-.45h.81a.24.24 0 0 1 .27-.26c.11.06.28 0 .49-.18a2.76 2.76 0 0 1 .49-.36.8.8 0 0 1-.36-.09v-.09a1 1 0 0 1 .59-.18c.2 0 .28.09.22.27h.18q.72 0 .9-.45a.72.72 0 0 1 .13-.22.2.2 0 0 0 0-.14l-.4.23zM4.78 177.3l-.36.45q.36-.27.36-.45zM5.23 174.52a.78.78 0 0 0 .27-.52zM6.21 173.35a.54.54 0 0 0-.36.36q.15 0 .36-.36zM7.56 171.92a.08.08 0 0 0 .09-.09l-.18-.09v.36q0-.18.09-.18zM10.78 170.67a2.42 2.42 0 0 1 .27-.25c-.16.03-.27.1-.27.25zM11.05 170.42h.09s-.03-.05-.09 0zM13.25 181.55c-.21 0-.26.08-.14.14s.08-.09.23-.09h.31c-.06-.06-.19-.08-.4-.05zM16.07 120.93q-.09 0-.09.27c.06 0 .1 0 .14-.14s.01-.13-.05-.13zM17.59 172.37q-.18.09-.18.18c0 .06-.06.15-.17.27l.26-.14c.06-.03.09-.13.09-.31zM18 179.18q-.09 0-.27.18.04 0 .27-.18zM20.6 177.84c-.15 0-.23 0-.23.09h.36q.27 0 .09-.18c0 .06-.08.09-.22.09zM21.9 176.4l.44-.27-.35.18a.08.08 0 0 0-.09.09zM22.79 176a1.58 1.58 0 0 0-.45.18zM25.21 160.27q.18.18.27.09a1 1 0 0 1 .27-.18q-.54-.09-.54.09zM25.84 173.89a1 1 0 0 0-.45.09q.45.02.45-.09zM28.57 172.91a.4.4 0 0 1-.22.27.33.33 0 0 0 .22-.05s.11 0 .23.05v-.45a.22.22 0 0 0-.23.18zM29.47 159v-.18l-.35.44c-.07.07 0 .09.08.09-.06-.11 0-.19.05-.22a.2.2 0 0 1 .22 0c-.05-.05-.03-.13 0-.13zM29.65 159.28a.29.29 0 0 0 .22-.08c-.24 0-.39.06-.45.17a.36.36 0 0 1 .23-.09zM30.05 158.57a.26.26 0 0 0-.09.18v.09a.26.26 0 0 0 .18-.09.52.52 0 0 0 .09-.36.16.16 0 0 0-.18.18zM30.72 163.81a.17.17 0 0 1-.13.05 1 1 0 0 1 .31 0 .23.23 0 0 0 .23 0c-.24-.06-.38-.08-.41-.05zM30.68 158.39q.27 0 .09-.18-.09 0-.09.18zM31.22 158.21l.18-.18-.54.18q.27.09.36 0zM31.93 157v.18c.24 0 .36-.09.36-.26h-.18s-.06.08-.18.08zM32.29 163.05l.72-.18v-.09s.05 0 .05-.09a.79.79 0 0 1-.41.22 1.57 1.57 0 0 0-.36.14zM32.74 156.87q0-.18.09-.18v-.27q-.18.36-.09.45zM34.35 155.88v-.27q-.18 0 0 .27zM34.8 156.69c-.06-.12-.15-.14-.27-.05s-.09.14.09.14.18-.03.18-.09zM34.53 162.06q.18 0 .27-.27a.24.24 0 0 0-.27.27zM35.52 156.87a4.31 4.31 0 0 0-.81.44zM35.25 168a1 1 0 0 0 .18-.27.59.59 0 0 1-.27.27.58.58 0 0 0-.27.36l.09-.09zM37 156.15a.27.27 0 0 1 .23-.18c.08 0 .16-.06.22-.18h-.27c-.08.08-.18.21-.18.36zM38.83 155.52a.26.26 0 0 1 .18-.09.37.37 0 0 0-.27.09zM40 97.36l-.09.09H40v-.09zM40.81 97c-.07 0-.15.06-.27.18zM41 154.54a.08.08 0 0 0 .09-.09q0-.09.18-.09-.27-.09-.27.18zM41.07 129.35v-.18-.09c0-.09 0-.05-.09 0s.02.15.09.27zM42 162.33q-.27.18-.27.27a.74.74 0 0 0 .45-.27q-.18.18-.18 0zM41.88 158.48q-.18.18-.09.18a1.31 1.31 0 0 0 .27 0c.12 0 .15-.1.09-.22a.37.37 0 0 0-.27.04zM42.33 158.3q.27 0 .27-.09t-.27.09zM43.58 160.72c.12-.06.21-.08.27-.05s.06 0 0-.13zM44.21 95.66l.27-.18q0-.09-.27.18zM44.79 154.63a1.23 1.23 0 0 1-.22.26c.24 0 .36 0 .36-.18s-.11-.14-.14-.08zM45.11 126.84s.06-.09.18-.09.17 0 .17-.09a.18.18 0 0 0-.22 0 .25.25 0 0 0-.13.18zM45.46 152.65h.27q.18 0 .18-.09h-.27q-.18 0-.18.09zM46.09 153.73c0 .06 0 .09-.13.09s-.14 0-.14.09q.45 0 .27-.18zM46.72 153.55h-.22s-.11.09-.23.27a.32.32 0 0 1 .23-.09c.09 0 .16-.06.22-.18zM49.14 153.1a2 2 0 0 1-.67.18.93.93 0 0 0-.5.18 3.41 3.41 0 0 1 .59-.13 1.39 1.39 0 0 0 .58-.23zM48.24 156a.37.37 0 0 0 .27-.09q-.27-.03-.27.09zM48.6 151.4v.09a.31.31 0 0 0 .32 0c.09-.06.07-.09-.05-.09zM49.77 151.22a.11.11 0 0 1-.18 0 .11.11 0 0 0 0 .18l.18-.09H50V151a.26.26 0 0 1 .09-.18q-.23.4-.32.4zM50 94.22c.18 0 .26 0 .26-.09a.34.34 0 0 1-.26.09zM50.84 150.86h.09l.18-.09h-.18s-.03.09-.09.09zM51.2 93.77c-.18 0-.27.13-.27.36q.27 0 .27-.36zM51 123.35q.18 0 .18-.09-.18 0-.18.09zM51.65 150.5v.09a.69.69 0 0 0 .27.09l-.09-.09a.26.26 0 0 1-.18-.09zM59.8 153.82c-.24 0-.35 0-.35.09a.51.51 0 0 0 .35-.09zM64.37 149c-.17 0-.26 0-.26.09.23-.02.32-.09.26-.09zM64.46 149.16h.18q-.18-.09-.18 0zM70.47 114.88a2.84 2.84 0 0 0 .18-.31 2.36 2.36 0 0 0-.36.62 2.84 2.84 0 0 1 .18-.31z"/><path class="cls-1" d="M102.18 128.59a2.79 2.79 0 0 0-.18.54l-.18.72a2.49 2.49 0 0 0-.09.58c0 .15.06.22.18.22s0 .27-.22.63-.29.57-.23.63.41-.2.68-.59.52-.58.76-.58a25.34 25.34 0 0 1-1.39 3.14c-.51 1-1.06 1.91-1.66 2.87a.17.17 0 0 1-.13-.05s-.11 0-.23.05a1 1 0 0 0-.22.76 1.41 1.41 0 0 1-.22.85l-.72.9a3.53 3.53 0 0 0-.54.89q-.18 0-.18.09t-.18-.09c.06.12.08.2 0 .23a.17.17 0 0 0 0 .13.26.26 0 0 0-.09.18q0 .09-.18.09v.27l-2.42 2.69a1.83 1.83 0 0 1-.53.62 1.79 1.79 0 0 0-.54.63c-.3.3-.58.57-.85.81a2.22 2.22 0 0 0-.59.8h-.09v.36l-3.23 3.32a31.06 31.06 0 0 1-4.26 4 28.38 28.38 0 0 1-5.06 3.18c-.54.18-1.09.39-1.66.62a17.32 17.32 0 0 1-1.75.63.49.49 0 0 0-.53.45 4.57 4.57 0 0 0 1.88-.22 16.09 16.09 0 0 0 1.79-.77 32 32 0 0 0 4.68-2.92q2.37-1.74 4.16-3.27a1 1 0 0 1-.45.67 1.43 1.43 0 0 0-.53.59l-3.77 2.95a7.44 7.44 0 0 0-1 .63 5.43 5.43 0 0 1-1.08.63c-.84.41-1.67.85-2.51 1.3a7.1 7.1 0 0 1-3 .76 8.56 8.56 0 0 1-1.56-.18 9.8 9.8 0 0 0-1.84-.18 5.06 5.06 0 0 1-1-.09l-1.16-.27a7.7 7.7 0 0 1-1.61-.4 15.9 15.9 0 0 1-1.62-.67 4.55 4.55 0 0 1-2.1-2 8.4 8.4 0 0 1-.94-3.27 2.43 2.43 0 0 1 0-1.39 3.11 3.11 0 0 0 .13-1.39l.36-.18a22.77 22.77 0 0 1 .54-2.6c.24-.89.51-1.76.81-2.6v-.09a.08.08 0 0 0 .09.09 22.87 22.87 0 0 1 .85-2.73A27.39 27.39 0 0 1 68 139a37.08 37.08 0 0 1 3-5.26c1.17-1.64 2.34-3.24 3.54-4.79a6.73 6.73 0 0 0 .76-.9 7.37 7.37 0 0 1 .76-.89c0-.12 0-.18.05-.18s0-.06 0-.18a1.47 1.47 0 0 0 .45-.54.51.51 0 0 1-.18.54.22.22 0 0 0 .23-.18.57.57 0 0 1 .13-.27c.12.06.13.11.05.14a.2.2 0 0 0-.14.22 12 12 0 0 0 1.57-1.48 6.12 6.12 0 0 1 1.57-1.3v-.36a.86.86 0 0 0 .58-.13c.09-.09.25-.11.49 0a5.59 5.59 0 0 1 2.33-1.52 1.3 1.3 0 0 1 1 0 2.38 2.38 0 0 0 1.07.23l.54.63a2.74 2.74 0 0 1 1.26.13 1 1 0 0 1 .8.85c.06.06.11.08.14 0s.07 0 .13.13a5.53 5.53 0 0 1 .58 3.18 16.85 16.85 0 0 1-.67 3.72 7.56 7.56 0 0 1-.4 1 8.7 8.7 0 0 0-.4.89q-.27.72-.63 1.53a13 13 0 0 1-.81 1.52l-1.79 2.87c-.6.84-1.21 1.64-1.84 2.42a12.2 12.2 0 0 1-1.83 1.88l-1.62.81a5 5 0 0 1-1.12.31l-1.12.13a2.26 2.26 0 0 1-1.75-.35 7.4 7.4 0 0 1-1.3-1.17 13.18 13.18 0 0 0-1 2.2q-.54 1.47-.9 2.28a.08.08 0 0 1-.09-.09 14.3 14.3 0 0 0-.67 4.26 7.32 7.32 0 0 0 .85 3.9 24.31 24.31 0 0 0 3.77-1.18 18.38 18.38 0 0 0 3.31-1.79c.9-.66 1.81-1.36 2.74-2.11l2.64-2.1.27-.27a1.18 1.18 0 0 0 .54-.54 1.43 1.43 0 0 1 .44-.54c.48-.41 1-.83 1.48-1.25a11.85 11.85 0 0 0 1.39-1.4.14.14 0 0 0 .14-.08.47.47 0 0 1 .22-.18 2.86 2.86 0 0 1 1.44-1.35c1.26-1.43 2.39-2.82 3.41-4.17s2.09-2.88 3.23-4.61c.29.12.49 0 .58-.31a1.7 1.7 0 0 1 .4-.77A2.2 2.2 0 0 1 98 132l.36-.36a.69.69 0 0 0 .13-.36.46.46 0 0 1 .23-.36.52.52 0 0 1 .36-.18.29.29 0 0 0 .26-.18 3.51 3.51 0 0 1 .36-1l.18-.18h.36a.39.39 0 0 1 0 .4 1.82 1.82 0 0 1-.32.4 3.53 3.53 0 0 1-.31 1.08 5.36 5.36 0 0 0-.4 1.16 2.06 2.06 0 0 0 .62-.76c.12-.27.24-.55.36-.85a.26.26 0 0 0 .18.09.69.69 0 0 1 .27.09.53.53 0 0 0 .4-.58 1.33 1.33 0 0 1 .14-.76 2.39 2.39 0 0 0 .53-.5c.17-.25.35-.44.47-.56zm-29.12 14a11.45 11.45 0 0 0-.81 2c-.3.92-.51 1.63-.63 2.1a18 18 0 0 0 .85-2.06l.77-2.06zm10.3-15.23a7.62 7.62 0 0 0-1.7 1.7c-.48.66-1 1.31-1.52 2a15.77 15.77 0 0 0-1.26 1.61 16 16 0 0 1-1.25 1.62.52.52 0 0 1-.09.36c-.48.65-1 1.34-1.44 2.06a10.35 10.35 0 0 0-1.16 2.29.86.86 0 0 1 .63.27 15.24 15.24 0 0 0 3.71-3.5 27.09 27.09 0 0 0 2.83-4.66c-.06-.06-.14 0-.23.13s-.16.2-.22.14a3.74 3.74 0 0 0 1.12-1.84c.21-.74.46-1.51.76-2.28a.26.26 0 0 0-.18.08z"/><path class="cls-1" d="M109.08 141.45q0 .09-.18.09c.59-.8 1.22-1.59 1.86-2.37 0-.3 0-.66.09-1.17s.07-1 .11-1.51l-.44.48q-.27.27-.27.18a.71.71 0 0 0 .09-.31.5.5 0 0 1 .18-.32h-.09-.09v-.09l.09-.18.61-.7c0-.42.08-.85.13-1.27l-1.73 1.79h-.09c.24-.29.37-.47.41-.53a3.31 3.31 0 0 1 .49-.54 5.15 5.15 0 0 0 .8-1c.07-.11.14-.2.2-.3l.09-.58c-.22.25-.44.49-.64.74q-1.4 1.71-2.85 3.19a.19.19 0 0 0 0-.14c-.3.36-.62.72-.94 1.08l-.94 1c-.72.84-1.41 1.69-2.06 2.56a12.78 12.78 0 0 1-2.25 2.28c.66-.83 1.36-1.69 2.11-2.55s1.45-1.75 2.11-2.65a22.26 22.26 0 0 0-2.24 2.6 14.72 14.72 0 0 1-2.24 2.42 2 2 0 0 1-.41.67 1.2 1.2 0 0 0 .23-.22.61.61 0 0 1-.27.54 1.61 1.61 0 0 0-.45.45.62.62 0 0 1 .26-.54l-.26.27.36-.54a2.6 2.6 0 0 0-.81.81 1.78 1.78 0 0 1-1.07.71.28.28 0 0 1 .35.09 4 4 0 0 1-1.25.76l-1.34.59v-.09-.09c0-.09 0-.06 0 0s0 .06 0 0A18.92 18.92 0 0 1 98 142a133.7 133.7 0 0 0 1.83-4.66l.17-.34a.47.47 0 0 1 0-.45c.09-.12.19-.27.31-.45 1-2.5 1.9-4.55 2.64-6.13s1.48-3.07 2.2-4.44 1.48-2.81 2.28-4.3 1.78-3.44 2.92-5.83c.47-.83.77-1.39.89-1.65s.24-.56.36-.86c.24-.53.67-1.4 1.3-2.6s1.27-2.47 1.93-3.85 1.28-2.67 1.88-3.9a24.56 24.56 0 0 0 1.29-2.67.7.7 0 0 0 .31-.49.69.69 0 0 1 .31-.5 1.15 1.15 0 0 0-.13-.53 1.72 1.72 0 0 0-.32-.45c-.12-.12-.1-.23.05-.32s.19-.19.13-.31a2.39 2.39 0 0 0-.58-1.07 1 1 0 0 0-1.16-.14.83.83 0 0 1-.32.14.69.69 0 0 1-.8 0 4.73 4.73 0 0 1-.9-.72c-.3-.06-.46 0-.49.22a.36.36 0 0 1-.41.32.33.33 0 0 1-.09.26l-.62.27q-.72 1.44-1.89 3.54t-2.46 4.39q-1.31 2.3-2.55 4.44a97.5 97.5 0 0 0-2.07 3.68 2.69 2.69 0 0 0-.71 1.29 2.26 2.26 0 0 1-.54 1.12l-2.76 4.84c-.18.3-.27.44-.27.41a.39.39 0 0 1 0-.14.3.3 0 0 0 0-.13s-.09.1-.27.4v.27c-.71 1.38-1.37 2.68-2 3.9s-1.16 2.45-1.7 3.67-1.08 2.51-1.61 3.86-1.11 2.82-1.71 4.43c-.18.54-.37 1.11-.58 1.71a14.37 14.37 0 0 0-.49 1.7 22.69 22.69 0 0 0-1 3.67 9.33 9.33 0 0 0-.09 2.87c-.06.48-.12.88-.18 1.21a1 1 0 0 0 .36.94.59.59 0 0 0 .23.14c.09 0 .13.07.13.13a1.26 1.26 0 0 0 .09 1.08 3.37 3.37 0 0 0 .63.62v.27a5.57 5.57 0 0 0 .8.81 2.83 2.83 0 0 0 1.35.36 1.37 1.37 0 0 0 .71.27c.36 0 .74.1 1.13.13s.76 0 1.12 0a2.7 2.7 0 0 0 .8-.09c.3-.06.54-.12.72-.17l.54-.18a2.41 2.41 0 0 1 .53-.27 2.27 2.27 0 0 0 .54-.27 13.11 13.11 0 0 0 2.87-2.6 29 29 0 0 1 2.6-2.78c.06-.06.07-.1 0-.13s0-.08 0-.14a24.92 24.92 0 0 1 1.61-2 16.37 16.37 0 0 0 1.61-2.06 1.47 1.47 0 0 0 .54-.45q.07.07.07.16zm-1.34-4.26a.14.14 0 0 0 .1-.06c-.1.09-.19.2-.28.29a.22.22 0 0 1 .18-.23z"/><path class="cls-1" d="M129.49 148.26c-.06.06 0 .12 0 .18s.1.12 0 .18l-.18-.36-.44.36h-1.62a4.48 4.48 0 0 1-.89-.09q-.45-.09-.54-.36a2.09 2.09 0 0 1-1.79-1.16 5.57 5.57 0 0 0-.94-1.39 3.26 3.26 0 0 1-.77-1.3 6.68 6.68 0 0 1-.22-2.15 9.84 9.84 0 0 1 .31-2.24l1.3-4.53c.39-1.34.85-2.85 1.39-4.52a6.38 6.38 0 0 0 .27-.81q.09-.36.18-.81a6.06 6.06 0 0 0-1 1.26 4.91 4.91 0 0 0-.62.76 11.44 11.44 0 0 1-.72.94c0 .06 0 .08.09.05s.06 0 0 .13h-.18l-2.87 4.08q-1.6 2.28-2.78 4.16c-.83 1-1.64 2-2.41 3a15.31 15.31 0 0 1-2.87 2.73c.06.18 0 .27-.14.27s-.13 0 0 .09c-.3.18-.44.24-.41.18s0-.15-.13-.27a2.69 2.69 0 0 1-.58.18 4 4 0 0 1-.85.09 7.81 7.81 0 0 1-.86 0c-.26 0-.43-.1-.49-.22a1.24 1.24 0 0 1-1.34.13.88.88 0 0 1-.63-1.12 1.67 1.67 0 0 1-.72-1h-.45a11.37 11.37 0 0 1-.44-2.33v-1.48a8 8 0 0 1 .23-1.48l.35-1.79a20.13 20.13 0 0 1 1.08-3.41q.9-2.33 2-4.88c.74-1.7 1.49-3.38 2.24-5s1.35-2.91 1.83-3.81c.18-.3.26-.48.23-.54s0-.23.22-.53a.52.52 0 0 0 .18-.36 1.48 1.48 0 0 1 .09-.45c.12-.06.16-.14.14-.22s0-.17.13-.23c.12-.6.22-1.06.31-1.39a4.25 4.25 0 0 1 .27-.76c.09-.18.18-.34.27-.49a5.22 5.22 0 0 0 .31-.68c.06 0 .09-.07.09 0s.06 0 .18 0c.12-.24.18-.32.18-.23a.27.27 0 0 0 .18.23 3.11 3.11 0 0 1 1.17-.41c.65-.15 1-.28 1.07-.4a.58.58 0 0 1 .49 0 1.42 1.42 0 0 0 .5.14c.12 0 .18 0 .18-.05s.06 0 .18 0a1.1 1.1 0 0 1 .58.36.82.82 0 0 0 .67.27c.06-.06.05-.12 0-.18s-.14-.12-.14-.18a1.25 1.25 0 0 0 .54.09 4.38 4.38 0 0 0 .22.67c.09.21.2.46.32.76a.41.41 0 0 1 .18.05.61.61 0 0 0 .27 0 2.08 2.08 0 0 1-.09 1.93q-.54 1.13-.9 2a1.13 1.13 0 0 0-.27.45 1.13 1.13 0 0 1-.27.45q.18.09 0 .18t-.09.09c-1 1.61-1.87 3.09-2.55 4.43a42.28 42.28 0 0 0-1.79 4q-.76 1.92-1.44 3.9c-.45 1.31-.91 2.72-1.39 4.21.84-1.08 1.62-2 2.33-2.78s1.38-1.52 2-2.24 1.17-1.42 1.71-2.11 1.07-1.44 1.61-2.28c.12.06.3-.11.54-.49s.36-.53.36-.41a1.18 1.18 0 0 0 .53-.45 4.21 4.21 0 0 0 .45-.71 13.35 13.35 0 0 0 .85-1.26 7 7 0 0 1 1-1.25c.42-.48.77-.9 1-1.26l.77-1c.23-.33.5-.71.8-1.16s.69-1 1.17-1.66a3.15 3.15 0 0 1 .63-.76 2.34 2.34 0 0 0 .53-.67 9.48 9.48 0 0 1 .54-.81 3.15 3.15 0 0 0 .45-.9q0-.18-.09-.09t-.09-.09q.27-.07.27-.27a.55.55 0 0 1 .4 0l.41.18a.15.15 0 0 0 0-.18.13.13 0 0 1 0-.17c0-.36.08-.47.23-.32a.91.91 0 0 0 .67.23 1 1 0 0 1 .54.18.72.72 0 0 0 .63.08c.18.18.23.27.18.27a.92.92 0 0 1 .94.54c.14.36.28.75.4 1.17a.61.61 0 0 0 .45.18 5.52 5.52 0 0 1 .67 1.12 1.4 1.4 0 0 1 .13 1.12c-.06.06-.06.07 0 0s.06 0 0 0a5.76 5.76 0 0 0-.26 1.07c-.06.36-.13.78-.18 1.26a11.34 11.34 0 0 1-1.17 2.73 14.29 14.29 0 0 0-1.25 2.73c-.42 1.2-.8 2.17-1.12 2.92s-.71 1.68-1.12 2.82l-1.08 3.31-.9 4c-.06.36-.12.67-.17.94a3.27 3.27 0 0 1-.27.76c.36-.18.89-.48 1.61-.9a5.18 5.18 0 0 0 1.43-1.07 13.3 13.3 0 0 0 1.08-1 10.79 10.79 0 0 1 1.16-1q-.18-.18-.09-.27c.12-.06.17 0 .14 0s0 .14 0 .14a2.75 2.75 0 0 0 .59-.59l.49-.67c.36-.41.85-.92 1.48-1.52s1.27-1.24 1.92-1.93 1.3-1.34 1.93-2a16.07 16.07 0 0 0 1.48-1.66.26.26 0 0 0 .18.09.69.69 0 0 1 .27.09 7.81 7.81 0 0 0 .8-.94 7.9 7.9 0 0 1 .81-.94 1.68 1.68 0 0 1-.36 1.08 3 3 0 0 0-.54 1.16.08.08 0 0 0 .09.09l-.85 1 .59-.63c.35-.38.77-.88 1.25-1.48s.87-1.1 1.16-1.52a1.12 1.12 0 0 1 0 .63 5.6 5.6 0 0 0-.17.63c0 .06.1 0 .13-.09s.07-.15.13-.09 0 .19-.09.22a.45.45 0 0 0-.17.22.09.09 0 0 1 .09.09c.17.12.31.12.4 0a1 1 0 0 1 .31-.26.28.28 0 0 1-.09.35.22.22 0 0 0 0 .36 2.4 2.4 0 0 1-.54.81 4.57 4.57 0 0 0-.62.81c-.12.18-.24.37-.36.58l-.45.76-.63.72q0 .18.18 0L141 136.7l-.85 1-.76.94c0 .06 0 .08.05.05s0 0 0 .13a.52.52 0 0 0-.18.36q-2 2.14-3.72 4.44a18.82 18.82 0 0 1-4.34 4.07 5.67 5.67 0 0 1-1.35.63.14.14 0 0 0-.18 0 .15.15 0 0 1-.18-.06zm3.23-33.43a.51.51 0 0 0 .54.18 1 1 0 0 1-.32-.22c-.09-.09-.16-.07-.22.04zm10.93 14.88l-.27.27zm.09-.18l-.09.18a.26.26 0 0 1 .09-.18zm0 3.41a.26.26 0 0 0-.09.18.26.26 0 0 1 .09-.18zM132.9 158.81c-.3.41-.63.82-1 1.21a6.87 6.87 0 0 0-1 1.39c-.3.41-.6.88-.9 1.39a7.9 7.9 0 0 0-.71 1.65 21.86 21.86 0 0 1 1.79-2.86 28.5 28.5 0 0 0 1.82-2.78z"/><path class="cls-1" d="M167.58 129.05V129h.27l.84-.84a14 14 0 0 1 .31-1.54c-.35.24-.72.48-1.06.73a27.93 27.93 0 0 0-2.24 1.83l-2.42 1.82.54-.63a5.87 5.87 0 0 1-.63.54 1.85 1.85 0 0 0-.54.62l.45-.35-1.88 1.7a1.1 1.1 0 0 1 .58-.63 1.11 1.11 0 0 0 .59-.63q-.63.54-1.26 1a4 4 0 0 0-1.07 1.16c-.12-.11-.09-.22.09-.31s.2-.16.08-.22a3.28 3.28 0 0 0 .14-.63.9.9 0 0 1 .22-.54c-.12 0-.07-.09.14-.27s.22-.27 0-.27l1.8-3.89c.47-1 .91-2 1.29-2.92s.81-1.85 1.26-2.86 1-2.25 1.66-3.68a3.56 3.56 0 0 0 .31-.58c.09-.21.16-.41.22-.58a1.65 1.65 0 0 0 .14-.81 5.81 5.81 0 0 1 0-.72 15.58 15.58 0 0 0-.26-1.57c-.13-.5-.24-1-.36-1.39a.2.2 0 0 1 .1 0 2.37 2.37 0 0 1-.64-.42 2.26 2.26 0 0 0-.9-.54 1.39 1.39 0 0 0-.45-.85.74.74 0 0 0-.89 0c.06-.36-.11-.53-.49-.53s-.38.26 0 .8a.58.58 0 0 1-.36-.27.65.65 0 0 0-.45-.27.16.16 0 0 0 .18.18q.18 0 .09.18a.64.64 0 0 1-.27 0 .6.6 0 0 0-.26 0c-.06.06 0 .09 0 .09s.1 0 0 .09-.2.06-.23 0a.14.14 0 0 0-.13-.09 2.87 2.87 0 0 1-.81.58.87.87 0 0 0-.45.86c-.24-.12-.4-.08-.49.13s-.17.4-.23.58a5.43 5.43 0 0 1-.17 1.08.69.69 0 0 1-.23.27.67.67 0 0 0-.22.27.59.59 0 0 0-.18.44.36.36 0 0 1-.18.36H159a.36.36 0 0 1-.18.36l-.27-.54a5.36 5.36 0 0 0-1.48-1.79 22.89 22.89 0 0 0-1.92-1.25 5.93 5.93 0 0 0-2.24-.68 3.7 3.7 0 0 0-1.8.36 6.26 6.26 0 0 0-1.52 1.12c-.48.48-.93 1-1.34 1.44a11.4 11.4 0 0 0-1.44 1.52c-.42.54-.86 1.08-1.34 1.61a.3.3 0 0 1 .13-.27c.09 0 .11-.14 0-.26l-.54.8c.06.06.1 0 .13 0s.08-.11.14 0-.06.15-.18.27l-.09-.09a3 3 0 0 1-.4.72 1.6 1.6 0 0 0-.32.72.61.61 0 0 0-.45.18.17.17 0 0 0 .05.13.18.18 0 0 1 0 .13.84.84 0 0 0-.53.68.86.86 0 0 1-.45.67 1.38 1.38 0 0 1-.32.76 3.17 3.17 0 0 0-.4.49 2.23 2.23 0 0 0-.45.81.81.81 0 0 1-.45.54 22.18 22.18 0 0 0-1.12 2c-.32.69-.64 1.36-.94 2a7.81 7.81 0 0 1-.58 1 5.21 5.21 0 0 0-.58 1.16H138c-.42 1-.81 1.94-1.17 3a18.65 18.65 0 0 0-.8 3.31 5.06 5.06 0 0 1-.18 1.17c-.06.3-.1.54-.14.72a4.73 4.73 0 0 0 0 .53 6.58 6.58 0 0 0 .22.85c.09.27.2.56.32.86l.18.89a2.58 2.58 0 0 0 .89.85 3.22 3.22 0 0 1 .9.77 5.16 5.16 0 0 1 .49.8 1.68 1.68 0 0 0 .49.63h.36l.27.45a.85.85 0 0 0 .94.27 5.41 5.41 0 0 0 .94-.45 2.06 2.06 0 0 1 .41-.23l.49-.13.9-.27a12.45 12.45 0 0 1 1.43-.45 4.82 4.82 0 0 0 1.43-.62 9 9 0 0 0 1.35-1c.42-.38.86-.82 1.34-1.29a3.13 3.13 0 0 0 .63-.63 9.48 9.48 0 0 0 .54-.81l4.3-4.48-.27 1.08c-.12.48-.21.86-.27 1.16a.69.69 0 0 1-.27.09.26.26 0 0 0-.18.09h-.09a2 2 0 0 0-.27.67 1.27 1.27 0 0 1-.35.67.08.08 0 0 0 .09.09c.05 0 .05 0 0 .09-.24.6-.36.83-.36.68a.45.45 0 0 0-.09-.32.61.61 0 0 0 .18-.45.78.78 0 0 0-.27.54l-.18.54a1.36 1.36 0 0 1-.63.72 1.45 1.45 0 0 1-.45.44 8.47 8.47 0 0 0-1.43 1.44.26.26 0 0 0-.18.09l-.27.27a.26.26 0 0 1-.18.09c-1.49 1.31-3.13 2.78-4.93 4.39a59.06 59.06 0 0 0-4.75 4.75l1.17-1.62a15.09 15.09 0 0 0-2 2.29c-.62.87-1.27 1.78-1.92 2.73a5.46 5.46 0 0 0-1.08 1.26l-1.34 1.52q-.63.18-.63.63l.36-.27a2.56 2.56 0 0 0-.45.54l-.09-.09a.14.14 0 0 1-.09.13c-.06 0-.09.11-.09.23l-.18.27v-.18a1.23 1.23 0 0 1-.31.49 1.28 1.28 0 0 0-.32.67v-.09-.09a3.18 3.18 0 0 1-.62 1.44 10.4 10.4 0 0 0-.9 1.25v.36a.78.78 0 0 0-.54.27l.36-.72a5.88 5.88 0 0 1 .36-.63 1.61 1.61 0 0 1 .31-.4c.15-.15.2-.28.14-.4-.3.41-.6.85-.9 1.3s-.6.91-.9 1.39l-.17.17-.27.36-.54.45a1.37 1.37 0 0 0-.22.54.81.81 0 0 1-.23.45.93.93 0 0 1-.36.8.26.26 0 0 1-.09.18.37.37 0 0 0-.09.27 2.26 2.26 0 0 0-.58.85 2.52 2.52 0 0 1-.4.76v.18a6.42 6.42 0 0 1-.41.54.85.85 0 0 0-.13.72.41.41 0 0 0-.22.31.81.81 0 0 1-.23.41l-.18.09a1.8 1.8 0 0 1-.31 1.12 2.09 2.09 0 0 0-.4 1l.17-.27-.17.36a13.12 13.12 0 0 0-.63 1.74c-.18.63-.36 1.3-.54 2a2.26 2.26 0 0 0 0 .76 1.52 1.52 0 0 1-.14.76.39.39 0 0 1 0 .18.91.91 0 0 0-.05.36 1.21 1.21 0 0 0 .14 1.21 2.81 2.81 0 0 1 .4 1.48 1.14 1.14 0 0 0 .63.54.78.78 0 0 1 .53.62c-.47.18-.8.14-1-.13a5 5 0 0 0-.63-.76 3.56 3.56 0 0 0 .9 1.07 1.2 1.2 0 0 1 .89.18c0-.12 0-.18-.13-.18s-.1 0 0-.09a.5.5 0 0 1 .5.32 1 1 0 0 1 0 .67 1.24 1.24 0 0 0 .9.49 5.1 5.1 0 0 0 1.16 0 1.87 1.87 0 0 0 .72-.09c0-.06 0-.09-.13-.09s-.11-.06 0-.18a1.61 1.61 0 0 0 1.17.36 11.56 11.56 0 0 0 1.7-.14 9 9 0 0 0 1.66-.4 5.22 5.22 0 0 0 1-.45v-.09a.08.08 0 0 0 .09.09h.27a1.86 1.86 0 0 1 1-.85 3.76 3.76 0 0 0 1.17-.76.46.46 0 0 0 .31-.4 1.51 1.51 0 0 1 .31-.68c.06 0 .08 0 0 .09s0 .09 0 .09a18.78 18.78 0 0 1 1.44-1.3 4.39 4.39 0 0 0 1.16-1.48h.09a1.88 1.88 0 0 0 .67-1 1.45 1.45 0 0 1 .86-.94 2.11 2.11 0 0 0 .62-1 3 3 0 0 0 1.39-1.53 7.78 7.78 0 0 1 1.12-1.88 3.94 3.94 0 0 0 .36-.72 1.84 1.84 0 0 1 .45-.62.81.81 0 0 0 .45-.54 2 2 0 0 1 .27-.63l.09.09a2 2 0 0 0-.09-.54h-.18q-.27 0-.09-.09c.3-.59.5-1 .62-1.25a4.72 4.72 0 0 1 .54-.81 10.46 10.46 0 0 0-.49.94 7.3 7.3 0 0 0-.4 1.12l.89-1.43a10.52 10.52 0 0 0 .81-1.61h.09v-.18l.27-.54a3.13 3.13 0 0 0 .62-1.25 7 7 0 0 1 .54-1.44c.12-.3.26-.6.41-.89s.28-.6.4-.9a1 1 0 0 1 .18-.27.37.37 0 0 0 .09-.27c.12-.06.15-.1.09-.13a.15.15 0 0 1-.09-.14l.36-.53 1.07-2.2c.36-.75.69-1.51 1-2.29q1.69-4 3-7.79c.86-2.51 1.75-4.84 2.64-7l.27-.27v-.45-.45a10.77 10.77 0 0 1 1.3-.76c.63-.33.85-.52.67-.58q0-.18.72-.54t.81-.81l.62-.53v.27a.22.22 0 0 0 .23-.18 1.16 1.16 0 0 0 0-.27l.36-.36a1.41 1.41 0 0 1 .36-.27.29.29 0 0 1-.18.27.59.59 0 0 0-.27.27 1.32 1.32 0 0 0 .63-.45v-.18a13.94 13.94 0 0 0 1.07-1 5.84 5.84 0 0 1 1.17-.89 1.44 1.44 0 0 1-.22.31.45.45 0 0 0-.14.32 2.08 2.08 0 0 1 .4-.32c.15-.09.17-.28.05-.58a3.75 3.75 0 0 0 1-.72 2.5 2.5 0 0 1 1-.62l-.72.8.9-.8a1.19 1.19 0 0 0 .25-.13 11 11 0 0 1-.06-1.52l-1.53 1.11v-.09c-.13 0-.18.06-.18.18a2.34 2.34 0 0 0-.5.45 1.89 1.89 0 0 1-.58.44 3.31 3.31 0 0 1 .36-.31.46.46 0 0 0 .18-.4 2.14 2.14 0 0 0-.81.58 2 2 0 0 1-1 .58 2.25 2.25 0 0 0 .35-.22.91.91 0 0 0 .27-.32 3 3 0 0 0 .9-.58c.3-.27.6-.55.9-.85h.18l-.54.63.45-.27v-.09a2.13 2.13 0 0 0 .71-.72 2.09 2.09 0 0 0-.54.36v-.18c-.06-.06-.1-.06-.13 0a.15.15 0 0 1-.13.09l-.63.63a2.4 2.4 0 0 1-.63.45.91.91 0 0 1-.45.35l-.18.27a2.08 2.08 0 0 1-.4.32l-.4.22a8.78 8.78 0 0 1-.94.81c-.33.24-.68.48-1 .71a14.61 14.61 0 0 1 1.56-1.34c.57-.42 1.12-.86 1.66-1.34a5 5 0 0 0 .36-.41 4.81 4.81 0 0 1 .36-.4q.27-.63.72-.63.16-.18 0-.18a.71.71 0 0 0 .26-.22c.07-.37.19-.37.37-.32zm-26.17 15.06a2.38 2.38 0 0 1-1.52 0 1.25 1.25 0 0 1-1-.94 6.79 6.79 0 0 0 2.5.63q.27 0 .27.09t-.25.22zm-17.2 34.59a1.87 1.87 0 0 1-.18 1.08c-.18-.06-.21-.2-.09-.41a.87.87 0 0 0 .09-.67l-.18.27a7.32 7.32 0 0 1 .45-2.73l.89-2.2-.62 1.7a11.49 11.49 0 0 0-.36 2.96zm.18 1.17l-.09-.18.09-.09h.09a1.84 1.84 0 0 1 0-.81 2 2 0 0 1 .27-.63.77.77 0 0 1 .13.63c0 .3-.13.48-.31.54q.54.54-.18.54zm2.15 3.58v-.09a.17.17 0 0 0-.05-.13.2.2 0 0 1 0-.14q-.09.18-.09.09a.08.08 0 0 0-.09-.09q.09-.45.36-.18t-.13.54zm1.57-9.59c-.09.24-.2.51-.32.81l-.09.09a3.83 3.83 0 0 1 .23-.76c.09-.21.19-.47.31-.76a1.81 1.81 0 0 1-.13.62zm.13-4.48c-.06.12-.06.2 0 .23s.06.1 0 .22a13.17 13.17 0 0 0-1.93 3.81 36.9 36.9 0 0 0-.94 3.9c-.26 0-.42-.08-.49-.24a.56.56 0 0 1 0 .15 2.26 2.26 0 0 1 0-1.62 6.27 6.27 0 0 0 .49-1.34V174a3.45 3.45 0 0 0 .32-.36 2.84 2.84 0 0 0 .22-.35v-.45c.12-.3.26-.62.4-.94a8.35 8.35 0 0 1 .5-.94 3.53 3.53 0 0 1 .49-.86 3.47 3.47 0 0 0 .49-.85 1.07 1.07 0 0 0 .54-.63 1.15 1.15 0 0 1 .27-.53V168s-.05-.06-.05-.18a1.28 1.28 0 0 1 .4-.27c.15-.06.23-.21.23-.45a.26.26 0 0 1 .18.09 4.57 4.57 0 0 1 .62-.81 2.36 2.36 0 0 0 .54-.8 3.49 3.49 0 0 1-.63 1.3 8.67 8.67 0 0 0-.8 1.3 1.9 1.9 0 0 1-.49.49.77.77 0 0 0-.36.71zm19.67-19l-.49 1.07c-.18.39-.34.77-.49 1.12s-.26.63-.32.81c-.53 1.19-1.09 2.3-1.66 3.32s-1.12 2-1.65 2.91-1.11 1.88-1.71 2.87-1.19 2-1.79 3.18c-.24.48-.43.88-.58 1.21a10.77 10.77 0 0 1-.67 1.21l-.81 1.07a1.21 1.21 0 0 1-.22.32l-.23.22a.8.8 0 0 0-.09.36.52.52 0 0 1-.18.36l-1 1.07-.36.72a5.88 5.88 0 0 1-.36.63 2.72 2.72 0 0 1-.85 1.07 2.06 2.06 0 0 0-.76 1.17c-.24.24-.45.43-.63.58a1.64 1.64 0 0 0-.45.67 1.61 1.61 0 0 0-.85.76 1.22 1.22 0 0 1-.76.68v.09s.05.05.05.18c-.24.29-.48.56-.72.8l-.8.81-.32.18a.54.54 0 0 1-.31.09c-.18 0-.3-.11-.36-.32a2.41 2.41 0 0 1-.09-.67 5 5 0 0 1 .27-1.61 3.31 3.31 0 0 0 .13-.67 1.52 1.52 0 0 1 .23-.68 17.25 17.25 0 0 1 1-2.59c.39-.78.76-1.59 1.12-2.42a2.4 2.4 0 0 0 .36-.5c.12-.21.24-.4.36-.58a7.65 7.65 0 0 0 .26-.72 1.13 1.13 0 0 1 .27-.45l.27-.26a.8.8 0 0 0 .09-.36.37.37 0 0 1 .09-.27 1.72 1.72 0 0 1 .4-.54 1 1 0 0 0 .32-.45q.09-.09 0-.09a.08.08 0 0 1-.09-.09 1 1 0 0 1 .22-.4 2.86 2.86 0 0 1 .41-.31c0 .12-.08.22-.23.31a.43.43 0 0 0-.22.4 3.88 3.88 0 0 0 1-1.21 12.73 12.73 0 0 1 .81-1.3l.85-1a4.51 4.51 0 0 1 .58-.58c.18-.15.38-.33.59-.54a6.08 6.08 0 0 0 .76-1l.89-1.26a2.74 2.74 0 0 0 .45-.58c.12-.21.24-.43.36-.67l.45-.45.45-.45 2-2.33c.66-.77 1.28-1.58 1.88-2.42a4.35 4.35 0 0 0 .72-.67c.3-.33.61-.66.94-1s.64-.62.94-.89a6.71 6.71 0 0 1 .72-.58 2.13 2.13 0 0 1-.19.63zm1.75-7.89a1.27 1.27 0 0 0-.63.76v-.09a.3.3 0 0 0-.09-.18c.24-.23.47-.44.68-.62a4.42 4.42 0 0 0 .58-.63 1 1 0 0 1-.54.72zm7.62-22.13a17.21 17.21 0 0 0-1 1.57.76.76 0 0 0-.22.4.42.42 0 0 1-.32.31l.09.18a72.843 72.843 0 0 0-3.67 5.11 30.16 30.16 0 0 1-3.85 4.75 1.07 1.07 0 0 1-.36.58 4.69 4.69 0 0 1-.54.4 27.78 27.78 0 0 0-2.33 2.65 9.36 9.36 0 0 1-2.51 2.28 1 1 0 0 1 .13-.44.68.68 0 0 0 0-.54 36.28 36.28 0 0 1 2.28-6.19 60.8 60.8 0 0 1 3.19-5.73c.47-.84 1-1.69 1.56-2.55s1.12-1.75 1.66-2.65l1.79-2.42 1.39-.89a4.43 4.43 0 0 1 1.39-.63.64.64 0 0 1 .72.4c.18.33.33.58.45.76a1.81 1.81 0 0 1 .63.59 6.36 6.36 0 0 0 .35.58 11.38 11.38 0 0 1-.83 1.44zm7.88 11.64a2 2 0 0 1 .45-.41v.09a1.61 1.61 0 0 1-.89.72 2.12 2.12 0 0 0 .44-.4z"/><path class="cls-1" d="M168.75 126a22.14 22.14 0 0 0-1.84 1.3c-.57.44-1.12.91-1.66 1.39a2.61 2.61 0 0 0-.8.49 1.33 1.33 0 0 0-.45.67c.72-.66 1.46-1.28 2.24-1.88l2.42-1.88zM128.42 164.9a.71.71 0 0 0-.09.45q.18-.35.09-.45zM131.74 161.05a.86.86 0 0 0 .27-.63 2.68 2.68 0 0 1-.27.36q-.09.09 0 .27zM134.43 157.15a3.28 3.28 0 0 0-.45.67l1-1.34c-.2.24-.38.46-.55.67zM135.59 155.67l-.45.63.63-.81-.18.18zM139.8 125.65a7.38 7.38 0 0 1-.4.85 7.38 7.38 0 0 0-.4.85 5.09 5.09 0 0 1 .4-.81 3.92 3.92 0 0 0 .4-.89zM140.79 149.76l-.27.26.45-.35-.18.09zM142 148.23a1.13 1.13 0 0 0-.27.45q.36-.18.36-.45zM162.7 130.76c-.09 0-.13.06-.13.18a.22.22 0 0 1 .17-.09q.09 0 .27-.18h-.18c0 .06-.04.09-.13.09zM163.24 130.4a.31.31 0 0 0-.14.27.51.51 0 0 1 .18-.23.47.47 0 0 0 .18-.22h-.09c0 .06-.04.12-.13.18zM166.69 129.77l-.05.07c-.05.07.05-.04.05-.07z"/><path class="cls-1" d="M166.64 129.84h-.13l-.27.27c.16.02.28-.11.4-.27zM167 127.89a1.08 1.08 0 0 1 .18-.16c-.18.02-.18.07-.18.16zM167.14 127.73h.08s-.03-.04-.08 0z"/><path class="cls-1" d="M194.6 134.35a52.66 52.66 0 0 1 1.78-7.49 8.47 8.47 0 0 1-.79 1c-.39.42-.76.84-1.12 1.26a36.66 36.66 0 0 1-3.54 3.85c-1.11 1-2.35 2.21-3.72 3.59a.52.52 0 0 0-.36.09 2.42 2.42 0 0 1-.81.58 2.4 2.4 0 0 0-.8.58c-.12-.12-.17-.07-.14.14s0 .28 0 .22a1 1 0 0 1 .27-.9c-.06-.06-.11-.06-.14 0s0 .06 0 0a45.28 45.28 0 0 1 1.3-6.72q.84-3 1.88-5.73t2.19-5.29q1.17-2.59 2.33-5.47a6.7 6.7 0 0 0 0-2.33 9.92 9.92 0 0 0-.67-2.06c.18-.06.28 0 .31.09s.11.12.23 0a1.4 1.4 0 0 1-.9-.67 1.41 1.41 0 0 0-.72-.67 3.69 3.69 0 0 0-.4-.77c-.15-.2-.46-.22-.94 0-.12-.06-.17-.13-.14-.22a.21.21 0 0 0 0-.23q-.81-.63-.54-.18a2.83 2.83 0 0 1 .36.9.35.35 0 0 1-.36-.23.57.57 0 0 0-.36-.31.2.2 0 0 0 .18.22c.12 0 .12.11 0 .23a.73.73 0 0 0-.54-.18c-.06.06 0 .09.05.09s.1 0 0 .09-.19.06-.22 0a.15.15 0 0 0-.13-.09c-.18.18-.38.36-.59.54a1.12 1.12 0 0 0-.31.89h-.36a1.35 1.35 0 0 0-.4.85 3.39 3.39 0 0 1-.23 1 .83.83 0 0 1-.18.26.84.84 0 0 0-.17.27.81.81 0 0 0-.23.41.76.76 0 0 1-.22.4q-.09.09-.09 0a.38.38 0 0 0-.14.36c0 .12 0 .15-.13.09a7.29 7.29 0 0 0-1.7-2.06q-1-.81-2.07-1.62a2.1 2.1 0 0 0-2.42-1.07 4.22 4.22 0 0 0-.71.36 1.28 1.28 0 0 1-.72.18 1.8 1.8 0 0 1-.36.4 1.37 1.37 0 0 0-.36.49 17.46 17.46 0 0 1-1.34 1.39 10 10 0 0 0-1.25 1.39l-1 1.17a4.14 4.14 0 0 0-.72 1.25.36.36 0 0 1 0-.4.44.44 0 0 0 .13-.32 4.4 4.4 0 0 0-.27.45l-.27.54c.12 0 .18-.05.18-.14s0-.1.09 0a.37.37 0 0 1-.09.27q-.09.09-.18-.09a2.78 2.78 0 0 1-.49.81 1.15 1.15 0 0 0-.31.8c-.12-.12-.18-.13-.18 0s-.06.13-.18.13 0 .18 0 .18.05 0 .05.09a.83.83 0 0 0-.54.67.94.94 0 0 1-.36.67 1.47 1.47 0 0 1-.4.77 3.88 3.88 0 0 0-.49.58 2 2 0 0 0-.27.63.85.85 0 0 1-.36.53 7.58 7.58 0 0 0-.94 1.75c-.27.69-.55 1.36-.85 2a7.9 7.9 0 0 0-.45.85 4 4 0 0 1-.54.85c-.06.12-.12.26-.18.4a1.13 1.13 0 0 0-.09.41q-.18 0-.18.09c-.41 1.07-.8 2.19-1.16 3.36a18 18 0 0 0-.72 3.63 1.57 1.57 0 0 1-.09.58 1.08 1.08 0 0 0-.09.4 3.05 3.05 0 0 0 0 1.48c.12.39.24.73.36 1a.57.57 0 0 1 .18.41.9.9 0 0 0 .09.4 2 2 0 0 0 .4.85 6.82 6.82 0 0 1 .58.67 4 4 0 0 0 .63.67 7.07 7.07 0 0 0 .72.59.26.26 0 0 0 .18.09.69.69 0 0 1 .27.09 2.12 2.12 0 0 0 .36.26.73.73 0 0 0 .35.18c1 .12 1.57.11 1.66 0s.32-.22.67-.22a8.82 8.82 0 0 1 1.8-.68 4.5 4.5 0 0 0 1.52-.67 8 8 0 0 0 1.25-.94c.36-.33.72-.67 1.08-1a2.4 2.4 0 0 0 .63-.45l.45-.45c.65-.83 1.34-1.67 2.06-2.51a30.2 30.2 0 0 0 1.88-2.42c-.18 1.08-.35 2.2-.49 3.36a17.78 17.78 0 0 0 0 3.81.33.33 0 0 1 .18.32.87.87 0 0 0 .09.4 2 2 0 0 1 .27.58c.06.21.12.47.18.76a5.13 5.13 0 0 1 .27.9 1.37 1.37 0 0 0 .36.72 2.1 2.1 0 0 0 .67.49 1 1 0 0 1 .49.58 1.15 1.15 0 0 0 1 .18 1.61 1.61 0 0 1 .94-.09 7.13 7.13 0 0 0 2.06-.58 9.69 9.69 0 0 0 1.8-.94c.77-.6 1.55-1.21 2.33-1.84a10.53 10.53 0 0 0 2-2.1l2.22-2.71a5.31 5.31 0 0 1-.1-2.02zm-25.85 7.05a2.9 2.9 0 0 1-1.79-.05 3.51 3.51 0 0 1-1.8-1.57 5.05 5.05 0 0 0 1.84 1.08 3.93 3.93 0 0 0 1.75.36zm14.38-24.47c-.33.54-.64 1-.94 1.52a.78.78 0 0 0-.22.36c0 .12-.11.15-.23.09v.28c-1 1.67-2.12 3.48-3.31 5.42a26.42 26.42 0 0 1-3.68 4.8 1.38 1.38 0 0 1-.31.76l-.4.4c-.66.84-1.32 1.66-2 2.47a9.48 9.48 0 0 1-2.24 2 1 1 0 0 1 .09-.45 1.17 1.17 0 0 0 .09-.53 45.5 45.5 0 0 1 3-8.11c1.31-2.72 2.63-5.16 3.94-7.31.36-.48.7-1 1-1.52s.7-1.11 1.12-1.7a8.57 8.57 0 0 1 .9-1.08 4 4 0 0 1 1.43-.81 2.28 2.28 0 0 1 .63-.17c.12 0 .3.15.54.44a3.91 3.91 0 0 1 .63.85 3.11 3.11 0 0 0 .53.77 9 9 0 0 1-.57 1.52z"/><path class="cls-3" d="M236.17 131.35a10.53 10.53 0 0 1-2 2.1c-.78.63-1.56 1.24-2.33 1.84a9.69 9.69 0 0 1-1.8.94 7.13 7.13 0 0 1-2.06.58 1.61 1.61 0 0 0-.94.09 1.15 1.15 0 0 1-1-.18 1 1 0 0 0-.49-.58 2.1 2.1 0 0 1-.67-.49 1.37 1.37 0 0 1-.36-.72 5.13 5.13 0 0 0-.27-.9c-.06-.29-.12-.55-.18-.76a2 2 0 0 0-.27-.58.87.87 0 0 1-.09-.4.33.33 0 0 0-.18-.32 17.78 17.78 0 0 1 .05-3.81c.15-1.16.31-2.28.49-3.36a28.06 28.06 0 0 1-1.88 2.42c-.72.84-1.41 1.68-2.06 2.51l-.45.45a2.4 2.4 0 0 1-.63.45c-.36.36-.72.7-1.07 1a8.6 8.6 0 0 1-1.26.94 4.5 4.5 0 0 1-1.52.67 9.07 9.07 0 0 0-1.79.67c-.36 0-.59.08-.68.23s-.64.16-1.65 0a.93.93 0 0 1-.36-.18 2.12 2.12 0 0 1-.36-.26.69.69 0 0 0-.27-.09.26.26 0 0 1-.18-.09 7.07 7.07 0 0 1-.72-.59 3.83 3.83 0 0 1-.62-.67 8.24 8.24 0 0 0-.59-.67 2.16 2.16 0 0 1-.4-.85.91.91 0 0 1-.09-.41.57.57 0 0 0-.18-.4c-.12-.3-.24-.64-.36-1a3.05 3.05 0 0 1 0-1.48 1.08 1.08 0 0 1 .09-.4 1.57 1.57 0 0 0 .09-.58 18 18 0 0 1 .72-3.63c.36-1.17.75-2.29 1.16-3.36q0-.09.18-.09a1.13 1.13 0 0 1 .09-.41c.06-.14.12-.28.18-.4a4 4 0 0 0 .54-.85 7.9 7.9 0 0 1 .45-.85c.3-.66.58-1.33.85-2a7.37 7.37 0 0 1 .94-1.75.85.85 0 0 0 .36-.53 2 2 0 0 1 .27-.63 3.88 3.88 0 0 1 .49-.58 1.47 1.47 0 0 0 .4-.77.94.94 0 0 0 .36-.67.83.83 0 0 1 .54-.67v-.09s-.05-.06-.05-.18.18 0 .18-.13.06-.08.18 0a1.15 1.15 0 0 1 .31-.8 2.81 2.81 0 0 0 .5-.81q.07.18.18.09a.41.41 0 0 0 .08-.27c-.06-.06-.08-.05-.08 0s-.07.14-.18.14c.11-.24.2-.42.26-.54a4.4 4.4 0 0 1 .27-.45.44.44 0 0 1-.13.32.36.36 0 0 0 0 .4 4.14 4.14 0 0 1 .72-1.25l1-1.17a10.67 10.67 0 0 1 1.25-1.39c.48-.45.93-.91 1.35-1.39a1.37 1.37 0 0 1 .35-.49 1.8 1.8 0 0 0 .36-.4 1.28 1.28 0 0 0 .72-.18 4 4 0 0 1 .72-.36 2.11 2.11 0 0 1 2.35 1.17c.71.54 1.4 1.08 2.06 1.62a7.29 7.29 0 0 1 1.7 2.06c.12.06.16 0 .13-.09a.38.38 0 0 1 .14-.36q0 .09.09 0a.76.76 0 0 0 .22-.4.81.81 0 0 1 .23-.41 1 1 0 0 1 .18-.27 1 1 0 0 0 .18-.26 3.76 3.76 0 0 0 .22-1 1.35 1.35 0 0 1 .4-.85c.12-.06.2-.07.23 0a.17.17 0 0 0 .13 0 1.12 1.12 0 0 1 .31-.89c.21-.18.41-.36.59-.54a.14.14 0 0 1 .13.09c0 .06.11.06.23 0s0-.09 0-.09-.1 0 0-.09a.72.72 0 0 1 .53.18c.12-.12.12-.19 0-.23a.21.21 0 0 1-.18-.22.57.57 0 0 1 .36.31.35.35 0 0 0 .36.23 2.83 2.83 0 0 0-.36-.9q-.27-.45.54.18a.21.21 0 0 1 0 .23c0 .08 0 .16.13.22.48-.18.79-.16.94 0a3.69 3.69 0 0 1 .4.77 1.41 1.41 0 0 1 .72.67 1.4 1.4 0 0 0 .9.67c-.12.12-.2.12-.23 0s-.13-.15-.31-.09a9.73 9.73 0 0 1 .67 2.06 6.69 6.69 0 0 1 .05 2.33c-.78 1.91-1.56 3.74-2.33 5.47s-1.51 3.49-2.2 5.29-1.31 3.7-1.88 5.73a45.28 45.28 0 0 0-1.3 6.72c0 .06 0 .06 0 0s.08-.06.14 0a1 1 0 0 0-.27.9c.06.06.07 0 0-.23s0-.25.14-.13a2.42 2.42 0 0 1 .81-.58 2.67 2.67 0 0 0 .8-.58.52.52 0 0 1 .4-.02c1.37-1.38 2.61-2.57 3.72-3.59a35.61 35.61 0 0 0 3.54-3.85c.36-.42.73-.84 1.12-1.26a8.37 8.37 0 0 0 1-1.34.74.74 0 0 0 .27-.45l.49-.54c.27-.3.54-.61.81-.94l.81-1a5.4 5.4 0 0 0 .58-.86 13.31 13.31 0 0 1 1.57-1.88 6.61 6.61 0 0 1 1.74-1.43c.18 0 .27 0 .27-.05v-.13a.26.26 0 0 0-.18-.09c.3-.3.56-.42.77-.36s0 .75-.5 2.06c-.3.48-.48.71-.54.67s-.15.14-.26.5a11.39 11.39 0 0 0 1.07-.9 6.16 6.16 0 0 0 .9-1.43l.31-.32.31-.31a2.08 2.08 0 0 0 .32-.4c.09-.15.19-.23.31-.23s-.06.47-.36 1a3.26 3.26 0 0 0-.44 1.12c.05.06.16 0 .31-.13s.3-.31.45-.49.37-.42.67-.72c-.12.66-.36 1.06-.72 1.21a.91.91 0 0 0-.54.94 1 1 0 0 0 .59-.49 1.59 1.59 0 0 1 .31-.5 7.51 7.51 0 0 1-.49 1c-.21.36-.41.72-.58 1.08-1 1.43-1.72 2.57-2.29 3.4s-1.33 2-2.29 3.41zm-27.24.89a3.45 3.45 0 0 0 1.79 1.57 2.9 2.9 0 0 0 1.79.05v-.18a3.93 3.93 0 0 1-1.75-.36 5 5 0 0 1-1.83-1.08zm1.7-16.94a3.6 3.6 0 0 1-.32.9c-.15.3-.28.6-.4.9a1.74 1.74 0 0 1 .27-.9 6.3 6.3 0 0 0 .45-.9zm7.26 7.71l.4-.4a1.38 1.38 0 0 0 .31-.76 26.42 26.42 0 0 0 3.68-4.8c1.19-1.94 2.3-3.75 3.31-5.42v-.09s-.05 0-.05-.09v-.09c.12.06.2 0 .23-.09a.78.78 0 0 1 .22-.36c.3-.47.61-1 .94-1.52a8.28 8.28 0 0 0 .76-1.52 3.77 3.77 0 0 1-.53-.77 3.91 3.91 0 0 0-.63-.85c-.24-.3-.42-.44-.54-.44a2.28 2.28 0 0 0-.63.17 4 4 0 0 0-1.43.81 7.77 7.77 0 0 0-.89 1.08c-.42.59-.8 1.16-1.13 1.7a16.84 16.84 0 0 1-1 1.52c-1.31 2.15-2.63 4.59-3.94 7.31a46.28 46.28 0 0 0-3.05 8.11 1.2 1.2 0 0 1-.09.53 1 1 0 0 0-.09.45 9.73 9.73 0 0 0 2.25-2c.58-.82 1.24-1.64 1.9-2.49z"/><path class="cls-3" d="M253.88 96.42a.54.54 0 0 0-.36.4 3.61 3.61 0 0 1-.27.67c0 .07 0 .09.09.09l-.9 1.53a16.67 16.67 0 0 0-.8 1.7 1.42 1.42 0 0 1-.36.54 7.11 7.11 0 0 1-.76 2.15 11.55 11.55 0 0 0-.94 2.24c.95-.84 2-1.81 3.13-2.91a14.08 14.08 0 0 1 3.77-2.65c.29-.12.58-.22.85-.31s.52-.16.76-.22.21-.08.27-.05a.31.31 0 0 0 .27 0 .08.08 0 0 0 .09-.09.08.08 0 0 1 .09-.09.9.9 0 0 1 .62 0 2 2 0 0 0 .72.14 2.1 2.1 0 0 0 .58-.09l.68-.18a2.58 2.58 0 0 1 1.21.67 5.6 5.6 0 0 1 .85 1.12l.71.27a1.42 1.42 0 0 1 .54.36c.12 0 .09-.08-.09-.23s-.21-.25-.09-.31l1.17.54c0 .3.09.48.27.53a6.59 6.59 0 0 0 .53 1.66 4.28 4.28 0 0 1 .36 1.84 21.38 21.38 0 0 1-.94 5.78 47.33 47.33 0 0 1-1.75 4.79 41.88 41.88 0 0 1-5.28 8.7 26.24 26.24 0 0 1-7.26 6.18.08.08 0 0 1-.09-.09.08.08 0 0 0-.09-.09 5.12 5.12 0 0 0-1.62.54h-.35a4.19 4.19 0 0 1-2-.18 2.87 2.87 0 0 0-2 0 1.22 1.22 0 0 0-.94-.76 1.73 1.73 0 0 1-1-.58c0-.06 0-.08.09-.05a.14.14 0 0 0 .18 0 .56.56 0 0 0-.36-.59.71.71 0 0 1-.45-.58.92.92 0 0 1-.76-.89 5 5 0 0 0-.22-1.26.14.14 0 0 1 .18 0 .15.15 0 0 0 .18 0 1.18 1.18 0 0 0 .09-.76l-.27-.94.18.09a2.09 2.09 0 0 1 1.25-.63.49.49 0 0 0 .14-.45c0-.18.07-.27.31-.27a1 1 0 0 1-.18.27q-.09.09.09.27a.76.76 0 0 1 .4-.22.29.29 0 0 0 .23-.32q.27.18.27.36a.48.48 0 0 0 .18.36 3.3 3.3 0 0 0 .58 1.43 5.85 5.85 0 0 0 .94 1 5.47 5.47 0 0 0 3.23-1.43c.11-.12.13-.18 0-.18s-.13-.06-.13-.18a11.55 11.55 0 0 0 2.28-1.57c.63-.57 1.24-1.18 1.84-1.84a.52.52 0 0 1 .09-.36.35.35 0 0 0 .09-.27 6.69 6.69 0 0 0 1.34-1.65 10.36 10.36 0 0 1 1.26-1.75l.89-1.79a.59.59 0 0 1 .14-.59l.4-.4a2.23 2.23 0 0 0 .27-.63l.18-.09a5.8 5.8 0 0 0 .27-.8.87.87 0 0 1 .36-.54c.47-1.43.95-2.81 1.43-4.12a15.69 15.69 0 0 0 .81-4.84 6.63 6.63 0 0 0-2.51 1.3c-.78.62-1.56 1.27-2.33 1.92s-1.47 1.14-2.24 1.8l-2.33 2c-1.26 1.37-2.54 2.79-3.86 4.26s-2.63 3-3.94 4.52c-.84 1.38-1.67 2.63-2.51 3.76a11.7 11.7 0 0 0-1.88 4.31l-.36.53a.87.87 0 0 1-.54.36.57.57 0 0 1-.09.32.66.66 0 0 0 0 .49l-.36.36a1.13 1.13 0 0 0-.27.45c-.29 0-.4-.06-.31-.18s0-.15-.31-.09a.2.2 0 0 0 0 .22.21.21 0 0 1 0 .23c-.42 0-.61 0-.58-.23s-.08-.19-.32.05a.8.8 0 0 1-.31-.32 1.76 1.76 0 0 0-.32-.4 7 7 0 0 0-.31-.72 1.1 1.1 0 0 1 0-.71l-.72-.63a6.41 6.41 0 0 1 .27-3.59c.42-1 .84-2.09 1.25-3.22a28.22 28.22 0 0 1 1-2.83c.36-.86.75-1.74 1.16-2.64a16 16 0 0 0 .94-2c.27-.68.56-1.41.86-2.19.23-.48.46-1 .67-1.48s.43-1.09.67-1.75a1.77 1.77 0 0 0 .45-.63.18.18 0 0 1 0-.13.33.33 0 0 0 0-.22c.47-1.26 1-2.51 1.57-3.77s1.15-2.48 1.74-3.67a9.78 9.78 0 0 1 .72-1.75c.3-.57.6-1.18.9-1.84a4.94 4.94 0 0 1 .36-.76 1.12 1.12 0 0 0 .08-.76l.54-.72a.51.51 0 0 0 0-.36.48.48 0 0 1 0-.35l.45-.27a3 3 0 0 1 .18-.72c.12-.24.22-.43.31-.58s.17-.29.23-.41a.51.51 0 0 1 .09-.35c.06-.06.07-.09 0-.09s0-.06.05-.18.27-.3.27-.36a.81.81 0 0 0 .08-.45 3.09 3.09 0 0 0 .32-.63 1.54 1.54 0 0 1 .31-.53 6.29 6.29 0 0 1 .36-.77 2.59 2.59 0 0 1 .36-.49 1.32 1.32 0 0 1 .54-.9.26.26 0 0 1 .09-.17.31.31 0 0 0 .09-.18 31.43 31.43 0 0 0 1.57-3.68 13 13 0 0 1 1.88-3.45c.12-.12.16-.18.14-.18s0 0 0-.09a3.55 3.55 0 0 0 .67-1.12 5.82 5.82 0 0 1 .81-1.39 3.57 3.57 0 0 1 1.07-.94 1.47 1.47 0 0 1 1.48.22c.12-.06.17 0 .14 0a.74.74 0 0 0-.05.22q.09.09.27 0l.36-.18c0 .06 0 .11-.13.13s-.11.08 0 .14q.72.09.72.18t.72.18a.57.57 0 0 0 .4.67 1.55 1.55 0 0 1 .67.49 1.81 1.81 0 0 1 .14 1.57 10.72 10.72 0 0 1-.68.94c.06.12 0 .23-.13.32a1.53 1.53 0 0 0-.4.31.66.66 0 0 1-.18.67c-.18.15-.21.4-.09.76q-.36-.09-.63.63t-.45.81a.52.52 0 0 1-.09.36c-.06.06 0 .17.09.35a2 2 0 0 1-.58.68.93.93 0 0 0-.4.76q0-.09-.18 0c-.18.48-.21.8-.09 1a1.45 1.45 0 0 1-.63.18.62.62 0 0 1-.05.27c0 .06 0 .15.05.27-.18.06-.27.17-.27.31a.33.33 0 0 1-.18.32c0 .42-.12.69-.36.8a1.09 1.09 0 0 1-.13 1 2.29 2.29 0 0 0-.32 1.17l-.31.26c-.15.12-.19.21-.13.27a4.5 4.5 0 0 1-.5.9 1.55 1.55 0 0 0-.31.89 5.29 5.29 0 0 1-.67 1.39 4.06 4.06 0 0 0-.59 1.57l-.35.27c-.12.12-.17.2-.14.23s-.08.16-.14.28zM246 113.27a15.71 15.71 0 0 1 1.84-2.33c.86-1 1.8-1.93 2.82-2.92s2-1.89 3-2.73a25.05 25.05 0 0 1 2.47-1.88v-.09q-2.77 2.15-4.53 3.54c-1.16.93-2.12 1.73-2.87 2.42a12.13 12.13 0 0 0-1.74 1.93 7.16 7.16 0 0 0-.99 2.06zm3.41-6.54q.43-.27.36-.54a.78.78 0 0 1-.23.27.3.3 0 0 0-.14.27zm5.82-5.2a.61.61 0 0 1-.45.18.36.36 0 0 0-.36.18c-.77.65-1.56 1.34-2.37 2.06a15.89 15.89 0 0 0-1.93 2 1.81 1.81 0 0 0 .59-.45l.49-.63a4.35 4.35 0 0 1 .72-.71 7.92 7.92 0 0 1 .8-.54c.24-.18.46-.36.67-.54a2 2 0 0 0 .5-.63.52.52 0 0 0 .36-.09l.26-.26a2 2 0 0 0 .63-.27 3 3 0 0 0 .45-.36 2.08 2.08 0 0 1 .4-.32.75.75 0 0 0 .32-.49 1.32 1.32 0 0 0-.63.45 1.61 1.61 0 0 1-.46.42zm-2.37 4.12s.07-.06.13-.18l-.27.27a.26.26 0 0 1 .13-.09zm3.54-5l.09.09.09-.09v-.18a.16.16 0 0 0-.19.16zm8 .45a.53.53 0 0 1-.49-.09c-.21-.12-.4-.24-.58-.36.3-.12.52-.09.67.09a1.38 1.38 0 0 0 .36.34z"/><path class="cls-3" d="m-20.75 22zm2.15-5.2a6.25 6.25 0 0 0-.44.71 6.5 6.5 0 0 1-.81 1.26 2.32 2.32 0 0 0-.45 1.52 15.85 15.85 0 0 1 1-2.15c.39-.66.8-1.31 1.21-2a5.87 5.87 0 0 0-.54.71zm.14 8.74s-.07-.05-.14-.05c.13.12.21.15.27.09a.22.22 0 0 1-.16-.02zm.63.17a.21.21 0 0 0-.23.05q.18.18.27.18c0-.06 0-.08.05-.05s-.03-.1-.12-.13zm-.05-18.32l.09-.09-.21.26a.08.08 0 0 0 .09-.12zm1.84 13.49c.39-.75.79-1.54 1.21-2.38v.09c0 .06 0 0 .13 0a.35.35 0 0 0 .14-.22c.36-.48.71-1 1.07-1.48a7.4 7.4 0 0 1 1.17-1.3v-.09s.05 0 .05-.09c.3-.12.45-.29.45-.53.11 0 .17-.06.17-.18h.18a23.29 23.29 0 0 1 2-2c.69-.6 1.39-1.17 2.11-1.71a.86.86 0 0 1-.09.67 1.54 1.54 0 0 0-.18.77 9 9 0 0 0-1 2.1 6.37 6.37 0 0 1-1 1.93c-.24.36-.44.67-.59.94a3.41 3.41 0 0 1-.58.76v.27a10 10 0 0 1-1.34 1.88c.06.12.07.14 0 0s0-.11.14 0a7 7 0 0 1-2.42 2.69.08.08 0 0 0-.09.09.08.08 0 0 1-.09.09 7 7 0 0 1-.9.36 1.34 1.34 0 0 1-1.07-.09 4.15 4.15 0 0 1 .5-2.52zm.22-.14q0-.27.09-.27-.39.09-.12.32zm1.26-2.15l-.36.72a2 2 0 0 1 .33-.67zm.18-.27q0 .09-.18.27zm0 0a2.52 2.52 0 0 0 .53-.81zm1.07-1.25q-.36.18-.18.27zm.09-.27a1.18 1.18 0 0 0 .54-.54zm7.66-27.16a.58.58 0 0 0 .14-.35 2.84 2.84 0 0 1-.18.31 2.84 2.84 0 0 0-.18.31 2.71 2.71 0 0 0 .19-.22zm0 8.79q-.18-.18-.09-.27a.37.37 0 0 0 .02.32zm1.07-12.73a1 1 0 0 1-.26.72 1 1 0 0 1 .19-.67zm.18.18v.18q-.25.05-.07-.13zm.32-.31c0-.09.07-.11.13 0s0 .27-.13.27a.74.74 0 0 0-.32.09q.09 0 .09-.18c.05 0 .13-.04.16-.13zm3.54 0q0 .09.18.18v-.27q-.25 0-.25.08zm.45 14a8.9 8.9 0 0 1 0-1.79zm0-2.33v.09-.09l.09-.09c-.09.04-.09.07-.09.07zm0 .09c0 .06 0 .09.09.09zm.71-9.68a.29.29 0 0 0-.09-.36.49.49 0 0 1 0 .41.47.47 0 0 0 0 .4 1 1 0 0 1 .02-.47zm6.81 16.58q.27 0 .27-.09-.34-.02-.34.07zM180.81 196.93c.14-.26.14-.26.85-.33a6.83 6.83 0 0 1-.67-.41c-.41-.29-.8-.63-1.22-.91a2.06 2.06 0 0 0-.84-.32 9.63 9.63 0 0 0-1.42 0c-.5 0-1.1-.2-1.12-.61 0-.66-.48-1.07-.72-1.6s-.52-1.09-.73-1.65a8.13 8.13 0 0 1-.61-3.37.75.75 0 0 1 .12-.4l.1.21-.2-2h.13l.3 1.33v-3.12a7.27 7.27 0 0 1 .17-1h.17a3.41 3.41 0 0 1 .1.54v1.47a8.24 8.24 0 0 0 .21 1h.16a2.21 2.21 0 0 0 0-.68 7.69 7.69 0 0 1 0-3.57c.62-3.81 1.07-7.66 1.75-11.46.49-2.79 1.2-5.54 1.88-8.28a136.46 136.46 0 0 1 4.78-14.45c.74-2 1.4-4.08 2.17-6.1s1.72-4.23 2.58-6.35c.14-.33.27-.66.4-1-.37-.21-.55-.06-.66.23a6.24 6.24 0 0 1-.27.72c.08-1.06 0-2.14 1-2.93a2 2 0 0 0 .35-.62l.59-1.09c0-.07.15-.14.14-.2-.06-.56.37-.87.6-1.28a6.89 6.89 0 0 0 .92-2 7.68 7.68 0 0 1 1-2.42 12.74 12.74 0 0 0 .83-2 1.37 1.37 0 0 1 .84-1 3.28 3.28 0 0 0 1.94-2.25c.41-1 .9-2 1.39-3a4.52 4.52 0 0 1 .61-.79l-.11-.1-.23.23a5 5 0 0 1-.4.3 2 2 0 0 1 .34-1.22 8.16 8.16 0 0 0 .52-.83 5.41 5.41 0 0 0 .45-.62c.4-.88.77-1.77 1.18-2.65.09-.2.28-.36.38-.57a7.17 7.17 0 0 0 .35-.8 1.9 1.9 0 0 1 .12-.36c.3-.49.61-1 .94-1.44.09-.14.29-.21.4-.34s.31-.46.46-.69l-.16-.12-.64.72h-.1a3.19 3.19 0 0 1 .11-.33c.36-.81.72-1.63 1.09-2.44.06-.12.17-.22.24-.34s.27-.42.4-.63.2-.32.28-.48.13-.27.19-.41a2.29 2.29 0 0 1 .09-.28 10.93 10.93 0 0 0 .87-1.41c1.08-2.56 2.49-5 3.75-7.43.58-1.12 1.17-2.24 1.77-3.35.35-.64.77-1.25 1.1-1.89.58-1.11 1.13-2.23 1.66-3.35.66-1.41 1.23-2.86 1.95-4.23a44.37 44.37 0 0 0 3-7.61c.24-.79.63-1.52.87-2.3.58-1.82 1.18-3.64 1.64-5.49s.56-3.64.92-5.45a7.39 7.39 0 0 0 0-1.76.54.54 0 0 0-.49-.6c-.45-.07-.21-.54-.4-.76a5.2 5.2 0 0 1 .53-.26h.21c.45.13.83.1 1-.53l1.25.8h.08c-.16-.32-.32-.65-.5-1s-.14-.43.17-.51l.21-.06c.6-.22.63-.28.39-.84a3.91 3.91 0 0 0 1 .64c.35.09.79-.3.84-.66a1.13 1.13 0 0 0 1.29.4 3.88 3.88 0 0 1 .8.12 1.13 1.13 0 0 0 .35-.08l1.25.48v-.06l-.62-.74v-.08a.92.92 0 0 1 .28.09 3.07 3.07 0 0 1 1.18 1.39 1.49 1.49 0 0 0 .44.55 4 4 0 0 1 1.59 2.53 13.67 13.67 0 0 1-.68 7.8 97.14 97.14 0 0 1-4 9.38c-.86 1.77-1.48 3.65-2.31 5.44-1.41 3-2.88 6-4.36 9-1.66 3.33-3.33 6.66-5 10-1.55 3-3.16 5.93-4.75 8.9-1.38 2.57-2.75 5.15-4.15 7.71-1.71 3.14-3.49 6.25-5.18 9.41-1.34 2.49-2.62 5-3.87 7.56s-2.32 5-3.46 7.47c-.55 1.21-1.08 2.42-1.59 3.64-.16.39-.19.84-.34 1.24-.49 1.24-1 2.46-1.51 3.71-.68 1.81-1.3 3.65-2 5.47-.28.76-.61 1.49-.91 2.24a16.53 16.53 0 0 1-.68 1.74 29.7 29.7 0 0 0-1.68 4.83q-1 3.1-1.8 6.26a25.78 25.78 0 0 0-.78 5.54.19.19 0 0 1 0 .08 16.31 16.31 0 0 0-.59 3.1 4.08 4.08 0 0 0-.2 1.48 3.92 3.92 0 0 1-.08 1.07 1.79 1.79 0 0 0 .23 1.26c.16.25.19.43-.08.65s-.27.28 0 .6v-.34c.51.06.44.47.51.84l.69-.56c.78-.66 1.58-1.3 2.32-2 .58-.55 1.08-1.19 1.63-1.77a1.49 1.49 0 0 1 .48-.21l.06.11h.07c.06-.59.57-.82 1-1.12 2.54-2 5.05-4 7.64-5.91 1.41-1 3-1.86 4.46-2.79.16-.1.3-.25.46-.36s.25-.22.36-.21c.69.08 1.18-.38 1.75-.6 1.92-.76 3.79-1.61 5.72-2.3a20.71 20.71 0 0 1 4.22-1.06c.88-.11 1.67-.49 2.55-.56a25.46 25.46 0 0 0 2.59-.44c.23 0 .46-.14.7-.19a4 4 0 0 1 1-.12 10.12 10.12 0 0 0 2.2-.28c2.32-.3 4.65-.56 7-.83h.2l-1.2.61a5.07 5.07 0 0 0 2-.15 5 5 0 0 1 2.63.05v.12a7.14 7.14 0 0 1-.79.11c-.79 0-1.58.05-2.37.11-.21 0-.41.21-.63.28s-.65.17-1.07.28c1.14.38 2-.5 3.07-.28-.13.06-.25.13-.38.18a10.68 10.68 0 0 1-3.27.5 16.55 16.55 0 0 0-2 .24v.12c1.6-.1 3.2-.18 4.81-.29a8.59 8.59 0 0 1 3 .18 3.62 3.62 0 0 1 .6.28v.14c-.46-.1-.94-.17-1.39-.3a2.76 2.76 0 0 0-2.21.27.47.47 0 0 1-.28.07 23.32 23.32 0 0 0-7.11.77c-1.12.27-2.23.56-3.34.85-1.56.42-3.11.82-4.65 1.27a18.77 18.77 0 0 0-1.75.7c-1 .39-2 .73-2.91 1.19-1.21.59-2.37 1.28-3.53 2a38.36 38.36 0 0 1 10.85-4.22 2.62 2.62 0 0 1-.39.15 54.41 54.41 0 0 0-11 4.64 39.58 39.58 0 0 0-8.86 6.24c-1.26 1.16-2.37 2.47-3.58 3.68A71.06 71.06 0 0 0 186 194a3.1 3.1 0 0 1-2 1.46 2.45 2.45 0 0 0-1.47.72c-.09.11-.28.12-.47.2l.43.16v.11l-1.06.26zm13.47-74.14a2.66 2.66 0 0 0 .92-1.54 1.78 1.78 0 0 0-.92 1.54z"/><path d="M259.88 161.13c-9.76.64-49.92 2.08-67.2 22.56 13.76-13.28 15-14.24 16.32-14.88a24.6 24.6 0 0 1-13.92-3.81c4.32 1.12 17.92 1.6 28.8-.48s28.64-3.87 36-3.39z" fill-rule="evenodd" fill="#ef3f3f"/><ellipse cx="212.74" cy="49.74" rx="6.98" ry="6.25" transform="rotate(-51.95 212.725 49.744)" opacity=".9" fill="#ef3f3f"><animate attributeName="opacity" to="0" dur="1ms" fill="freeze" begin="0s"/><animate id="ellipse1" attributeName="opacity" to=".9" dur="100ms" begin="1.5s;ellipse7.end" fill="freeze"/><animate attributeName="opacity" to="0" dur="150ms" begin="ellipse7.begin" fill="freeze"/></ellipse><ellipse cx="197.32" cy="44.11" rx="3.8" ry="4.55" transform="rotate(-74.8 198.15 44.467)" opacity=".7" fill="#ef3f3f"><animate attributeName="opacity" to="0" dur="1ms" fill="freeze" begin="0s"/><animate id="ellipse2" attributeName="opacity" to="0.5" dur="100ms" begin="ellipse1.end" fill="freeze"/><animate attributeName="opacity" to="0" dur="250ms" begin="ellipse7.begin" fill="freeze"/></ellipse><circle cx="200.83" cy="29.23" r="4.05" opacity=".6" fill="#ef3f3f"><animate attributeName="opacity" to="0" dur="1ms" fill="freeze" begin="0s"/><animate id="ellipse3" attributeName="opacity" to="0.68" dur="100ms" fill="freeze" begin="ellipse2.end"/><animate attributeName="opacity" to="0" dur="350ms" begin="ellipse7.begin" fill="freeze"/></circle><ellipse cx="199.83" cy="24.26" rx="2.5" ry="2.98" transform="rotate(-81.05 199.82 24.269)" opacity=".35" fill="#ef3f3f"><animate attributeName="opacity" to="0" dur="1ms" fill="freeze" begin="0s"/><animate id="ellipse4" attributeName="opacity" to="1" dur="50ms" fill="freeze" begin="ellipse3.end"/><animate attributeName="opacity" to="0" dur="450ms" begin="ellipse7.begin" fill="freeze"/></ellipse><ellipse cx="189.42" cy="19.92" rx="3.02" ry="3.61" transform="rotate(-74.75 189.437 19.91)" opacity=".2" fill="#ef3f3f"><animate attributeName="opacity" to="0" dur="1ms" fill="freeze" begin="0s"/><animate id="ellipse5" attributeName="opacity" to="0.5" dur="200ms" fill="freeze" begin="ellipse4.end"/><animate attributeName="opacity" to="0" dur="550ms" begin="ellipse7.begin" fill="freeze"/></ellipse><circle cx="195.8" cy="1.97" r="1.97" opacity=".1" fill="#ef3f3f"><animate attributeName="opacity" to="0" dur="1ms" fill="freeze" begin="0s"/><animate id="ellipse6" attributeName="opacity" to=".8" dur="100ms" fill="freeze" begin="ellipse5.end"/><animate attributeName="opacity" to="0" dur="650ms" begin="ellipse7.begin" fill="freeze"/></circle><circle cx="195.8" cy="1.97" r="1.97" opacity="0" fill="#ef3f3f"><animate id="ellipse7" attributeName="opacity" to="0" dur="1490ms" fill="freeze" begin="ellipse6.end"/></circle></g></g><style>.cls-1{fill:#fff}.cls-3{fill:#ef3f3f}</style></svg>